<!DOCTYPE svg PUBLIC "-//W3C//DTD SVG 20010904//EN" "http://www.w3.org/TR/2001/REC-SVG-20010904/DTD/svg10.dtd">
<svg version="1.0" xmlns="http://www.w3.org/2000/svg" width="626px" height="626px" viewBox="0 0 6260 6260" preserveAspectRatio="xMidYMid meet">
<g id="layer101" fill="#010103" stroke="none">
 <path d="M0 3130 l0 -3130 3130 0 3130 0 0 3130 0 3130 -3130 0 -3130 0 0 -3130z"/>
 </g>
<g id="layer102" fill="#1f1f21" stroke="none">
 <path d="M0 4708 c0 -853 2 -1549 4 -1547 5 5 19 215 20 304 1 28 4 55 7 60 4 6 7 33 8 61 0 29 5 64 11 78 5 15 9 30 8 34 -1 4 4 24 11 45 7 21 10 41 7 44 -3 4 -1 12 5 19 6 8 9 20 6 29 -4 8 -2 17 2 19 5 3 11 25 15 48 4 23 11 47 16 53 6 7 11 26 13 43 2 18 7 35 10 39 4 3 7 18 7 32 0 15 6 35 14 46 7 11 23 52 36 90 12 39 27 75 32 82 5 7 7 16 4 21 -3 6 1 15 9 22 8 7 15 18 15 25 0 18 172 356 198 389 12 16 22 33 22 37 0 9 59 93 85 120 8 9 15 22 15 29 0 7 15 29 33 49 43 50 91 111 96 124 2 6 21 29 42 51 21 21 35 44 32 49 -3 6 -2 7 4 4 10 -7 56 38 66 66 4 11 15 21 25 24 9 3 37 29 62 59 25 29 49 54 53 54 9 0 37 25 116 103 27 26 53 47 58 47 5 0 18 8 29 18 10 10 40 33 67 51 26 19 47 38 47 43 0 4 6 8 14 8 8 0 21 6 28 13 17 17 91 67 130 88 16 8 33 19 36 25 4 5 37 24 75 43 37 18 82 43 101 56 18 12 56 30 84 39 28 10 56 24 62 32 7 7 20 14 29 14 10 0 26 7 37 15 10 8 27 15 37 15 9 0 25 4 35 9 46 26 90 43 113 46 15 2 43 13 64 24 20 11 43 17 50 15 7 -3 16 0 20 5 3 6 10 9 14 6 5 -2 33 4 64 15 31 11 65 20 76 20 11 0 22 4 26 10 3 5 12 7 20 4 8 -3 19 -2 26 2 7 4 28 8 47 10 18 2 40 8 46 14 7 5 15 8 18 5 2 -3 20 0 39 5 19 6 57 11 84 11 28 1 54 4 59 7 5 3 32 6 60 7 108 4 281 17 285 21 2 2 -692 4 -1542 4 l-1547 0 0 -1552z"/>
 <path d="M3171 6255 c5 -4 133 -13 280 -20 31 -1 60 -4 65 -7 5 -3 34 -6 65 -7 30 0 68 -5 83 -10 15 -6 30 -10 34 -9 4 1 24 -4 45 -11 21 -7 41 -10 44 -7 4 3 12 1 19 -5 8 -6 20 -9 29 -6 8 4 17 2 19 -2 3 -5 25 -11 48 -15 23 -4 47 -11 53 -16 7 -6 25 -11 41 -13 17 -2 35 -7 42 -11 7 -4 16 -5 21 -1 5 3 12 1 16 -5 3 -5 17 -10 30 -10 13 0 26 -4 30 -9 3 -5 29 -17 58 -26 28 -10 76 -28 105 -41 29 -13 55 -24 58 -24 4 0 101 -44 194 -89 19 -9 63 -33 96 -54 34 -20 69 -37 78 -37 9 0 16 -4 16 -8 0 -5 32 -28 70 -53 39 -24 80 -52 92 -61 12 -10 27 -18 33 -18 7 0 18 -7 25 -16 17 -20 128 -104 138 -104 4 0 19 -12 33 -27 33 -37 116 -113 123 -113 7 0 156 -149 156 -156 0 -6 47 -58 118 -132 17 -19 32 -36 32 -38 0 -7 89 -120 104 -134 9 -7 16 -18 16 -24 0 -7 7 -21 15 -31 53 -71 82 -114 92 -137 7 -16 17 -28 23 -28 5 0 10 -7 10 -16 0 -17 27 -71 48 -92 7 -8 24 -39 38 -70 15 -31 43 -93 64 -137 20 -44 41 -91 45 -105 4 -14 13 -32 20 -40 7 -8 15 -30 19 -49 3 -19 17 -58 31 -87 14 -29 25 -64 25 -78 0 -14 5 -28 10 -31 6 -4 8 -10 5 -14 -2 -5 4 -33 15 -64 11 -31 20 -65 20 -76 0 -11 5 -23 10 -26 6 -4 8 -15 5 -25 -3 -10 -1 -21 5 -25 6 -3 8 -11 5 -16 -4 -5 3 -44 15 -86 12 -43 21 -100 22 -128 0 -27 3 -54 6 -59 3 -5 6 -32 7 -60 4 -115 17 -291 21 -295 2 -2 4 694 4 1547 l0 1552 -1547 0 c-850 0 -1544 -2 -1542 -5z"/>
 <path d="M2720 5160 c-7 -12 -10 -440 -10 -1256 0 -680 -2 -1239 -5 -1242 -2 -3 -41 32 -85 77 -44 44 -84 81 -88 81 -5 0 -15 11 -22 25 -7 14 -17 25 -21 25 -11 0 -109 97 -109 108 0 5 -11 15 -25 22 -14 7 -25 19 -25 26 0 7 -13 21 -30 31 -17 9 -30 20 -30 24 0 11 -79 89 -90 89 -6 0 -10 6 -10 14 0 8 -13 23 -30 33 -16 9 -30 20 -30 24 0 6 -34 42 -82 86 -7 6 -95 94 -195 195 -100 100 -216 216 -257 256 -42 39 -76 77 -76 82 0 6 -5 10 -11 10 -6 0 -20 11 -31 25 -11 14 -24 25 -29 25 -11 0 -5 -1100 6 -1137 4 -11 16 -23 27 -26 11 -3 22 -15 25 -26 3 -11 21 -30 39 -42 19 -11 34 -26 34 -32 0 -7 13 -21 28 -31 16 -10 39 -34 52 -52 12 -19 28 -34 34 -34 10 0 96 -86 96 -96 0 -5 61 -64 66 -64 10 0 144 -139 144 -149 0 -6 4 -11 9 -11 9 0 162 -149 222 -216 14 -16 58 -60 97 -97 40 -38 72 -73 72 -78 0 -5 3 -9 8 -9 6 0 77 -67 119 -112 6 -7 149 -150 317 -316 l305 -304 33 31 c133 124 188 180 188 188 0 6 9 13 21 16 11 3 23 14 26 25 3 11 13 22 24 25 10 3 23 17 29 31 5 14 15 26 22 26 15 0 88 75 88 90 0 5 5 10 10 10 14 0 45 31 53 53 4 9 13 17 22 17 8 0 20 11 25 25 5 14 18 28 27 32 21 8 68 56 76 77 3 8 18 20 34 28 15 7 34 26 41 41 7 15 17 27 21 27 13 0 66 53 74 73 4 9 18 22 33 27 14 6 28 19 31 30 3 11 10 20 15 20 14 0 538 525 538 539 0 6 5 11 11 11 14 0 159 145 159 159 0 6 6 11 13 11 6 0 29 18 50 39 l37 38 0 564 c0 310 0 567 0 571 0 4 -287 -280 -637 -630 l-638 -637 -3 1260 c-2 992 -5 1261 -15 1267 -6 4 -191 8 -409 8 -380 -1 -398 -2 -408 -20z"/>
 <path d="M0 1552 l0 -1552 1552 0 c853 0 1549 2 1546 5 -2 3 -60 7 -129 9 -68 3 -132 8 -142 12 -10 3 -31 4 -47 1 -16 -4 -32 -2 -35 3 -3 5 -29 9 -58 9 -28 0 -67 5 -86 10 -19 6 -38 8 -43 5 -5 -3 -15 0 -23 6 -8 7 -29 14 -47 16 -18 1 -33 4 -33 5 0 1 -9 3 -20 5 -37 6 -107 25 -166 44 -32 11 -69 20 -81 20 -13 0 -39 8 -58 19 -19 10 -60 26 -90 36 -30 10 -60 22 -67 27 -7 5 -16 7 -21 4 -6 -3 -15 1 -22 8 -6 8 -26 18 -43 22 -18 3 -43 15 -56 25 -13 11 -32 19 -42 19 -10 0 -40 13 -68 30 -28 16 -74 43 -102 60 -28 16 -56 30 -64 30 -7 0 -21 8 -31 18 -25 25 -147 102 -161 102 -7 0 -13 5 -13 10 0 6 -8 13 -17 17 -10 3 -34 20 -54 37 -61 53 -82 69 -105 80 -12 7 -35 25 -52 41 -16 17 -55 53 -86 80 -92 81 -186 172 -186 179 0 4 -33 41 -72 82 -40 42 -75 81 -78 87 -8 20 -86 121 -109 141 -11 11 -21 25 -21 33 0 8 -5 19 -11 26 -5 7 -30 44 -54 82 -24 39 -48 75 -53 80 -4 6 -30 53 -58 105 -27 52 -55 100 -61 108 -7 7 -13 19 -13 27 0 7 -20 51 -44 98 -24 47 -41 88 -38 91 2 3 0 11 -5 18 -6 7 -18 38 -28 68 -10 30 -26 71 -36 90 -11 19 -19 47 -19 62 0 15 -5 30 -10 33 -6 4 -8 10 -5 14 2 5 -4 33 -15 64 -11 31 -20 65 -20 76 0 11 -5 23 -10 26 -6 4 -8 15 -5 25 3 10 1 21 -4 24 -6 4 -8 13 -5 21 3 8 -1 28 -10 46 -9 17 -14 35 -11 39 2 4 0 22 -6 41 -5 19 -10 58 -10 86 0 29 -4 55 -9 58 -5 3 -7 19 -3 35 3 16 2 37 -2 47 -4 10 -8 74 -10 142 -11 362 -15 -19 -15 -1417z"/>
 <path d="M6248 3043 c-1 -27 -3 -75 -5 -108 -2 -33 -5 -87 -7 -121 -2 -34 -5 -65 -9 -70 -3 -5 -5 -31 -6 -59 0 -27 -5 -65 -10 -84 -6 -19 -8 -38 -5 -43 3 -5 0 -15 -6 -23 -7 -8 -14 -29 -16 -47 -1 -18 -4 -33 -5 -33 -1 0 -3 -9 -5 -20 -8 -51 -27 -121 -35 -131 -5 -6 -10 -25 -12 -42 -2 -18 -7 -35 -10 -39 -4 -3 -7 -19 -7 -34 0 -15 -4 -30 -9 -34 -5 -3 -22 -42 -37 -88 -14 -45 -31 -87 -36 -93 -5 -7 -8 -16 -6 -20 1 -5 -19 -53 -45 -106 -26 -54 -47 -102 -47 -108 0 -5 -4 -10 -8 -10 -4 0 -14 -16 -21 -36 -7 -20 -26 -55 -41 -78 -16 -23 -32 -54 -35 -69 -4 -15 -10 -27 -14 -27 -4 0 -29 -35 -56 -77 -27 -43 -55 -84 -62 -91 -7 -7 -13 -20 -13 -28 0 -8 -4 -14 -8 -14 -5 0 -24 -21 -42 -47 -19 -27 -45 -59 -57 -73 -13 -14 -23 -30 -23 -37 0 -7 -9 -17 -19 -23 -11 -5 -23 -19 -26 -30 -3 -11 -12 -20 -19 -20 -6 0 -20 -14 -29 -30 -10 -17 -22 -30 -28 -30 -5 0 -9 -6 -9 -14 0 -7 -27 -35 -59 -62 -33 -27 -64 -59 -70 -71 -6 -13 -16 -23 -23 -23 -7 0 -35 -23 -61 -50 -27 -28 -52 -50 -57 -50 -4 0 -15 -11 -24 -25 -9 -14 -22 -25 -29 -25 -12 0 -51 -29 -117 -87 -21 -18 -42 -33 -47 -33 -5 0 -18 -7 -28 -15 -83 -62 -116 -85 -124 -85 -5 0 -22 -10 -38 -23 -15 -12 -45 -30 -65 -39 -21 -10 -57 -30 -80 -45 -24 -15 -45 -28 -48 -29 -10 -2 -60 -24 -124 -54 -36 -16 -69 -30 -74 -30 -5 0 -15 -7 -22 -15 -7 -8 -17 -12 -22 -9 -5 3 -17 -1 -26 -9 -9 -8 -33 -17 -53 -21 -19 -3 -53 -15 -75 -26 -21 -12 -69 -27 -106 -35 -36 -7 -80 -21 -98 -30 -17 -9 -45 -17 -61 -17 -16 -1 -32 -5 -35 -9 -2 -5 -11 -6 -19 -2 -9 3 -21 0 -29 -6 -7 -6 -15 -8 -18 -6 -3 3 -41 -4 -84 -15 -43 -12 -100 -21 -126 -22 -26 0 -51 -4 -54 -9 -3 -5 -21 -7 -40 -3 -18 3 -42 3 -51 0 -10 -4 -73 -9 -141 -11 -360 -11 16 -15 1416 -15 l1552 0 0 1545 c0 850 -2 1545 -5 1545 -3 0 -6 -21 -7 -47z"/>
 </g>
<g id="layer103" fill="#404042" stroke="none">
 <path d="M0 4814 c0 -1014 3 -1443 11 -1439 6 4 7 19 4 36 -4 16 -3 34 2 41 4 7 9 27 9 43 2 40 12 116 26 190 6 33 12 70 13 82 2 12 6 27 11 34 4 7 9 22 11 33 13 85 27 142 34 150 5 6 9 20 9 32 0 13 4 25 9 28 4 3 11 24 15 46 3 23 10 49 15 58 5 9 19 46 32 82 12 36 30 81 39 100 10 19 23 49 30 65 7 17 16 37 21 45 5 8 12 22 15 30 3 8 12 26 19 40 8 14 26 48 40 75 14 28 41 77 60 110 18 33 43 76 54 96 11 19 27 41 35 48 9 8 16 17 16 22 0 14 88 139 132 186 21 24 38 46 38 51 0 5 20 28 44 53 25 24 43 45 41 47 -8 9 344 345 384 366 9 5 32 23 51 40 19 18 46 40 60 49 14 10 43 29 65 44 22 15 47 32 56 38 9 5 36 23 60 40 24 16 69 43 99 59 111 58 146 77 175 96 17 10 37 19 46 19 9 1 22 7 28 14 6 8 30 20 53 27 24 8 52 19 63 26 70 43 414 151 495 156 8 0 20 5 26 9 6 5 24 11 40 13 16 3 60 10 97 15 38 6 88 14 110 16 23 3 60 8 82 11 22 2 55 5 73 5 17 0 32 5 32 10 0 5 -560 9 -1440 9 l-1440 0 0 -1446z"/>
 <path d="M3003 6253 c4 -3 10 -3 14 0 3 4 0 7 -7 7 -7 0 -10 -3 -7 -7z"/>
 <path d="M3248 6253 c7 -3 16 -2 19 1 4 3 -2 6 -13 5 -11 0 -14 -3 -6 -6z"/>
 <path d="M3374 6253 c4 -5 22 -9 39 -10 80 -6 191 -20 272 -35 33 -6 73 -12 89 -14 16 -2 34 -8 40 -13 6 -4 18 -9 26 -9 27 -2 125 -23 145 -31 11 -4 61 -21 110 -36 50 -16 97 -32 105 -36 8 -5 39 -15 68 -24 28 -9 52 -20 52 -24 0 -4 27 -15 60 -25 32 -10 64 -24 71 -32 6 -8 19 -14 28 -14 10 0 32 -11 51 -25 19 -14 40 -25 48 -25 7 0 33 -13 57 -30 24 -16 56 -35 72 -41 15 -6 52 -27 82 -47 29 -20 61 -41 70 -47 55 -34 147 -101 154 -112 4 -7 15 -13 22 -13 8 0 15 -4 15 -10 0 -5 17 -20 38 -33 20 -14 52 -39 70 -58 18 -19 36 -34 40 -34 9 0 229 -222 302 -304 30 -34 58 -70 62 -81 4 -10 15 -24 25 -31 11 -8 30 -30 43 -49 14 -19 34 -45 45 -58 11 -13 31 -43 45 -67 14 -23 41 -67 62 -96 20 -30 44 -70 53 -89 9 -19 34 -66 55 -105 41 -75 55 -101 64 -125 3 -8 10 -22 15 -30 5 -8 14 -28 21 -45 7 -16 21 -46 30 -65 10 -19 35 -87 55 -150 21 -63 42 -123 46 -132 5 -10 9 -26 9 -36 0 -10 4 -22 9 -27 5 -6 13 -35 19 -65 6 -30 15 -73 22 -95 10 -36 15 -63 24 -120 2 -11 6 -36 10 -55 11 -63 24 -165 29 -237 1 -17 5 -35 10 -39 4 -4 7 644 7 1439 l0 1447 -1447 0 c-795 0 -1443 -3 -1439 -7z"/>
 <path d="M3125 5160 l-410 -5 -2 -1250 c-2 -687 -3 -1254 -3 -1258 0 -5 -288 281 -640 635 l-640 643 0 -566 0 -566 845 -846 c464 -466 848 -847 853 -847 5 0 390 381 855 846 l847 846 0 561 0 561 -92 -90 c-50 -49 -338 -336 -640 -637 l-548 -548 0 1260 c0 693 -3 1261 -7 1263 -5 2 -192 1 -418 -2z"/>
 <path d="M0 3250 c0 -7 3 -10 7 -7 3 4 3 10 0 14 -4 3 -7 0 -7 -7z"/>
 <path d="M6250 3250 c0 -7 3 -10 7 -7 3 4 3 10 0 14 -4 3 -7 0 -7 -7z"/>
 <path d="M0 3010 c0 -7 3 -10 7 -7 3 4 3 10 0 14 -4 3 -7 0 -7 -7z"/>
 <path d="M6250 3010 c0 -7 3 -10 7 -7 3 4 3 10 0 14 -4 3 -7 0 -7 -7z"/>
 <path d="M0 1440 l0 -1440 1440 0 c880 0 1440 4 1440 9 0 5 -15 10 -32 10 -18 0 -51 3 -73 5 -22 3 -59 8 -82 11 -35 4 -98 14 -199 30 -11 1 -45 10 -75 19 -30 9 -80 21 -111 27 -32 6 -58 14 -58 19 0 4 -19 11 -42 15 -39 7 -88 22 -143 45 -11 5 -38 14 -60 20 -22 7 -53 20 -70 29 -16 9 -49 23 -73 30 -23 8 -47 20 -53 28 -6 7 -19 13 -28 13 -9 0 -21 4 -26 9 -10 10 -112 65 -200 109 -27 14 -73 42 -102 64 -29 21 -55 38 -59 38 -9 0 -129 86 -162 117 -15 14 -47 38 -72 55 -25 16 -55 43 -68 59 -13 16 -28 29 -34 29 -5 0 -68 59 -140 130 -71 72 -127 130 -122 130 4 0 -18 28 -50 62 -87 97 -96 108 -96 118 0 5 -6 13 -13 17 -16 9 -101 130 -110 156 -4 9 -11 17 -17 17 -5 0 -10 6 -10 14 0 7 -13 30 -30 51 -16 21 -30 43 -30 50 0 7 -16 36 -35 65 -19 29 -35 57 -35 62 0 6 -13 33 -30 60 -17 26 -30 54 -30 62 0 7 -7 19 -15 26 -8 7 -15 19 -15 26 0 8 -4 22 -9 32 -39 78 -50 104 -66 152 -10 30 -26 76 -36 102 -11 26 -19 56 -19 67 0 11 -4 23 -10 26 -5 3 -10 17 -10 30 0 13 -4 26 -9 29 -5 3 -12 27 -16 53 -3 27 -13 68 -21 92 -8 24 -17 56 -19 70 -2 14 -9 57 -14 94 -6 38 -14 88 -16 110 -3 23 -8 60 -11 82 -2 22 -5 55 -5 73 0 17 -5 32 -10 32 -5 0 -9 -560 -9 -1440z"/>
 <path d="M6241 2848 c0 -18 -3 -51 -5 -73 -3 -22 -8 -59 -11 -82 -2 -22 -10 -72 -16 -110 -5 -37 -12 -78 -14 -90 -2 -12 -10 -44 -18 -70 -9 -26 -18 -66 -22 -88 -5 -36 -13 -64 -35 -120 -4 -11 -15 -45 -24 -75 -10 -30 -22 -64 -26 -75 -5 -11 -14 -38 -21 -60 -6 -22 -19 -56 -29 -75 -10 -19 -30 -62 -45 -95 -28 -64 -40 -87 -88 -175 -17 -30 -42 -77 -56 -105 -15 -27 -40 -70 -56 -94 -17 -24 -38 -58 -48 -75 -10 -17 -31 -47 -45 -66 -15 -19 -40 -54 -56 -78 -16 -23 -32 -42 -37 -42 -5 0 -14 -11 -21 -24 -7 -14 -38 -53 -68 -88 -63 -72 -287 -298 -296 -298 -3 0 -27 -20 -52 -45 -25 -25 -50 -45 -57 -45 -6 0 -24 -14 -41 -31 -24 -26 -133 -106 -195 -144 -9 -5 -41 -26 -70 -47 -30 -20 -70 -43 -89 -52 -44 -20 -118 -62 -136 -77 -8 -6 -14 -8 -14 -4 0 3 -12 -3 -26 -14 -15 -12 -33 -21 -41 -21 -14 0 -52 -17 -146 -67 -35 -19 -181 -69 -270 -93 -37 -10 -73 -22 -80 -28 -13 -10 -137 -38 -150 -34 -4 1 -17 -3 -28 -9 -12 -6 -37 -13 -57 -15 -21 -2 -57 -8 -82 -14 -51 -11 -130 -21 -175 -24 -16 0 -36 -5 -43 -9 -7 -5 -25 -6 -41 -2 -17 3 -32 2 -36 -4 -4 -8 425 -11 1439 -11 l1446 0 0 1440 c0 880 -4 1440 -9 1440 -5 0 -10 -15 -10 -32z"/>
 <path d="M3003 3 c4 -3 10 -3 14 0 3 4 0 7 -7 7 -7 0 -10 -3 -7 -7z"/>
 <path d="M3243 3 c4 -3 10 -3 14 0 3 4 0 7 -7 7 -7 0 -10 -3 -7 -7z"/>
 </g>
<g id="layer104" fill="#e0e0e2" stroke="none">
 <path d="M2 4813 c0 -797 3 -1434 5 -1417 15 116 65 406 86 489 51 211 117 391 219 605 98 203 235 422 367 585 36 44 70 86 76 93 18 25 269 277 310 313 326 284 741 518 1125 634 207 63 336 90 605 126 44 6 82 13 84 15 2 2 -644 4 -1437 4 l-1442 0 2 -1447z"/>
 <path d="M3425 6249 c33 -5 121 -19 195 -30 299 -45 590 -135 866 -269 77 -37 165 -83 195 -100 116 -70 317 -207 394 -269 44 -36 89 -72 100 -81 11 -8 81 -76 155 -150 238 -236 379 -423 540 -712 135 -243 242 -513 295 -748 9 -41 21 -88 27 -105 5 -16 22 -118 38 -225 l28 -195 1 1448 1 1447 -1447 -1 c-908 -1 -1426 -5 -1388 -10z"/>
 <path d="M2717 5153 c-4 -3 -7 -567 -7 -1252 0 -685 0 -1249 0 -1254 0 -4 -287 279 -637 629 l-638 636 -3 -558 -2 -559 850 -850 850 -850 850 850 850 850 0 560 0 560 -645 -645 -645 -645 0 1268 0 1267 -408 0 c-225 0 -412 -3 -415 -7z"/>
 <path d="M0 1442 l0 -1442 1442 0 c793 0 1439 2 1437 4 -2 2 -42 9 -89 15 -47 7 -137 20 -200 30 -396 64 -821 231 -1165 459 -129 85 -193 132 -335 247 -51 42 -318 315 -376 386 -300 365 -507 778 -623 1244 -28 111 -45 209 -72 410 -6 44 -13 82 -15 84 -2 2 -4 -644 -4 -1437z"/>
 <path d="M6241 2793 c-20 -155 -49 -331 -55 -341 -3 -5 -14 -47 -25 -93 -102 -442 -352 -918 -680 -1294 -78 -89 -292 -295 -381 -366 -121 -98 -450 -319 -474 -319 -4 0 -23 -10 -44 -23 -80 -50 -333 -155 -497 -208 -174 -56 -443 -111 -689 -142 -17 -2 620 -5 1417 -5 l1447 -2 0 1440 c0 792 -2 1440 -4 1440 -2 0 -9 -39 -15 -87z"/>
 </g>
<g id="layer105" fill="#ffffff" stroke="none">
 <path d="M1 4823 c1 -791 5 -1420 9 -1398 5 22 6 48 4 58 -3 10 0 24 6 32 7 8 9 26 5 44 -3 16 -2 32 4 35 6 4 8 13 4 21 -3 9 -1 21 5 28 6 7 13 43 17 81 3 38 9 74 13 80 3 6 8 26 9 44 1 18 9 47 17 64 9 17 16 43 16 58 0 15 3 30 7 33 3 4 7 18 9 31 1 13 11 43 22 67 23 52 37 91 34 101 -1 3 12 33 28 65 16 32 30 66 30 76 0 10 11 38 25 63 14 25 25 51 25 58 0 7 11 30 25 50 14 20 25 41 25 47 0 5 19 42 41 82 23 40 50 86 60 104 35 62 92 143 100 143 4 0 11 10 15 23 8 26 46 79 92 126 17 19 32 38 32 43 0 5 6 16 12 23 7 8 31 35 53 61 50 58 291 304 298 304 2 0 22 17 44 38 48 46 81 72 91 72 4 0 32 23 62 50 30 28 72 58 93 67 20 9 37 20 37 23 0 10 137 100 151 100 7 0 27 11 46 26 18 14 48 32 66 40 30 13 43 20 85 44 9 6 33 17 52 26 19 9 43 20 52 25 10 5 24 9 32 9 7 0 19 7 26 15 7 8 21 15 32 15 12 0 47 13 79 30 33 16 63 29 67 28 12 -3 114 31 128 42 7 6 23 13 36 14 13 2 30 6 39 10 9 4 27 8 40 10 13 1 34 8 47 15 13 7 30 10 37 7 8 -3 17 -1 21 5 3 6 13 8 21 5 9 -4 21 -2 27 3 7 6 38 13 71 16 33 4 64 10 70 13 15 10 35 13 90 15 28 2 55 6 62 10 7 4 22 5 35 2 13 -2 39 -1 58 4 21 5 -550 9 -1402 10 l-1438 1 1 -1437z"/>
 <path d="M3420 6249 c19 -5 46 -6 58 -3 13 2 30 0 38 -7 8 -6 25 -8 39 -5 14 4 31 3 38 -1 14 -8 20 -10 117 -24 41 -6 82 -14 90 -17 8 -3 30 -6 48 -8 18 -2 47 -10 64 -18 17 -9 43 -16 58 -16 15 0 30 -3 33 -7 4 -3 18 -8 32 -9 14 -1 44 -11 68 -22 23 -11 64 -25 92 -31 27 -7 57 -18 65 -26 8 -7 38 -20 65 -28 28 -8 68 -24 90 -35 22 -10 56 -27 75 -36 19 -9 42 -20 50 -24 8 -5 44 -24 80 -42 36 -18 83 -46 104 -62 22 -15 43 -28 48 -28 13 0 118 -70 118 -78 0 -5 17 -16 38 -25 20 -9 62 -39 92 -67 30 -27 58 -50 62 -50 36 0 498 -460 498 -496 0 -5 23 -34 50 -64 28 -30 58 -72 67 -92 9 -21 20 -38 24 -38 7 0 67 -89 87 -130 7 -14 24 -40 38 -59 13 -19 27 -46 31 -59 3 -14 14 -33 24 -43 11 -11 19 -27 19 -37 0 -10 11 -33 25 -52 14 -19 25 -40 25 -47 0 -7 11 -32 25 -57 14 -25 25 -52 25 -61 0 -8 16 -48 35 -88 19 -39 35 -82 35 -94 0 -12 9 -40 21 -62 11 -22 21 -51 23 -65 1 -14 6 -29 9 -33 4 -3 7 -18 7 -33 0 -15 7 -41 16 -58 8 -17 17 -48 19 -69 1 -21 4 -38 5 -38 1 0 9 -38 16 -85 19 -113 19 -114 27 -127 4 -7 5 -24 1 -38 -3 -14 -1 -31 5 -39 7 -8 9 -25 7 -38 -3 -12 -2 -39 3 -58 5 -21 9 550 10 1403 l1 1437 -1437 -1 c-853 -1 -1424 -5 -1403 -10z"/>
 <path d="M2715 5151 c-3 -5 -4 -575 -3 -1265 2 -691 1 -1256 -2 -1256 -3 0 -292 287 -642 637 l-638 638 0 -551 0 -551 503 -507 c276 -278 508 -506 515 -506 6 0 12 -6 12 -13 0 -15 178 -192 203 -200 9 -4 17 -12 17 -19 0 -17 361 -378 378 -378 6 0 12 -6 12 -13 0 -16 41 -57 57 -57 6 0 392 381 857 846 l846 846 0 556 0 557 -645 -646 c-355 -355 -645 -643 -645 -640 0 3 0 574 0 1269 l0 1262 -409 0 c-242 0 -412 -4 -416 -9z"/>
 <path d="M1 1438 l-1 -1438 1437 0 c1448 0 1638 4 1251 24 -31 1 -63 7 -70 13 -7 6 -44 14 -82 17 -37 3 -73 9 -80 13 -6 4 -24 8 -41 10 -16 1 -43 7 -60 14 -16 6 -43 13 -59 15 -16 2 -34 9 -41 14 -7 5 -14 7 -17 4 -4 -3 -31 6 -61 20 -29 14 -63 26 -74 26 -27 0 -84 20 -103 35 -8 7 -33 18 -55 25 -79 24 -295 126 -295 139 0 5 -13 11 -29 14 -15 3 -42 17 -59 31 -16 15 -36 26 -44 26 -7 0 -29 13 -48 30 -19 16 -41 29 -48 30 -7 0 -26 13 -44 30 -17 16 -37 30 -43 30 -7 0 -23 11 -36 25 -13 13 -28 25 -32 25 -4 0 -24 16 -44 35 -20 19 -42 35 -49 35 -7 0 -21 11 -32 25 -11 14 -25 25 -30 25 -6 0 -84 73 -174 162 -163 162 -258 267 -258 284 0 5 -20 31 -45 58 -25 27 -45 55 -45 62 0 6 -7 14 -15 18 -8 3 -15 12 -15 19 0 8 -14 28 -30 45 -16 18 -30 37 -30 44 -1 7 -14 29 -30 48 -17 19 -30 42 -30 51 0 9 -7 23 -16 30 -17 14 -31 39 -98 175 -21 44 -49 100 -62 126 -13 27 -24 55 -24 63 0 9 -16 48 -35 88 -19 39 -35 84 -35 98 0 15 -7 32 -15 39 -8 7 -12 16 -9 22 3 5 1 15 -6 23 -6 7 -13 24 -14 37 -7 55 -20 104 -32 123 -7 11 -15 43 -18 70 -2 28 -8 61 -14 75 -5 14 -10 45 -11 70 -1 24 -7 50 -13 58 -7 7 -12 37 -13 65 0 29 -4 57 -8 64 -4 7 -5 22 -2 35 2 13 1 39 -4 58 -5 21 -9 -550 -10 -1402z"/>
 <path d="M6246 2831 c-3 -22 -3 -46 0 -55 3 -8 2 -21 -3 -28 -4 -7 -8 -36 -9 -65 0 -28 -5 -58 -11 -65 -6 -7 -14 -44 -17 -82 -3 -37 -9 -73 -13 -80 -4 -6 -9 -29 -10 -50 -2 -22 -10 -50 -18 -62 -8 -13 -15 -37 -15 -53 0 -16 -5 -33 -10 -36 -6 -4 -8 -11 -5 -16 4 -5 -3 -28 -14 -52 -12 -23 -27 -67 -35 -97 -8 -30 -26 -78 -40 -106 -14 -29 -26 -59 -26 -68 0 -16 -23 -67 -68 -151 -12 -22 -35 -69 -53 -104 -17 -36 -42 -79 -55 -96 -13 -18 -24 -37 -24 -44 0 -14 -90 -151 -100 -151 -3 0 -14 -17 -23 -37 -9 -21 -39 -63 -67 -93 -27 -30 -50 -58 -50 -62 0 -10 -26 -43 -72 -91 -21 -22 -38 -42 -38 -45 0 -5 -228 -228 -300 -293 -72 -64 -78 -69 -87 -69 -5 0 -33 -23 -63 -50 -30 -28 -72 -58 -92 -67 -21 -9 -38 -20 -38 -24 0 -7 -106 -79 -118 -79 -4 0 -26 -13 -48 -28 -41 -30 -133 -81 -194 -107 -19 -8 -42 -19 -50 -23 -44 -27 -122 -62 -135 -62 -9 0 -48 -16 -88 -35 -39 -19 -82 -35 -94 -35 -12 0 -40 -9 -62 -21 -22 -11 -51 -21 -65 -23 -14 -1 -29 -6 -33 -9 -3 -4 -18 -7 -33 -7 -15 0 -41 -7 -58 -16 -17 -8 -46 -16 -64 -17 -18 -1 -38 -6 -44 -9 -6 -4 -42 -10 -80 -13 -38 -4 -74 -11 -81 -17 -7 -6 -19 -8 -28 -5 -8 4 -17 2 -21 -4 -3 -6 -19 -7 -35 -4 -18 4 -36 2 -44 -5 -8 -6 -22 -9 -32 -6 -10 2 -36 1 -58 -4 -22 -4 607 -8 1398 -9 l1437 -1 0 1435 c0 789 -2 1435 -4 1435 -2 0 -6 -18 -10 -39z"/>
 </g>

</svg>