<?xml version="1.0" encoding="utf-8"?>
<!-- Generator: Adobe Illustrator 20.1.0, SVG Export Plug-In . SVG Version: 6.00 Build 0)  -->
<svg version="1.1" id="Layer_1" xmlns="http://www.w3.org/2000/svg" xmlns:xlink="http://www.w3.org/1999/xlink" x="0px" y="0px"
	 viewBox="0 0 672.3 131.2" style="enable-background:new 0 0 672.3 131.2;" xml:space="preserve">
<style type="text/css">
	.st0{fill:#3B3B3B;}
	.st1{fill:#FFFFFF;}
	.st2{font-family:'Georgia-Bold';}
	.st3{font-size:112.615px;}
</style>
<rect x="131.2" y="-0.3" class="st0" width="540.5" height="131.5"/>
<g id="Layer_2_1_">
</g>
<g id="Layer_1_1_">
	<text transform="matrix(1 0 0 1 162 106.5827)" class="st1 st2 st3">Cramler</text>
	<path class="st1" d="M4.6,65.6"/>
</g>
<g id="Layer_2">
	<rect class="st0" width="131.2" height="131.2"/>
	<circle class="st1" cx="65.6" cy="65.6" r="61"/>
</g>
<g id="Layer_5">
	<path class="st0" d="M101.3,58.2V82c-8.9-8.9-17.8-17.7-26.7-26.6c-0.1,17.7-0.3,35.3-0.4,53c-5.7-0.1-11.4-0.2-17.1-0.3
		c-0.1-17.5-0.3-52.4-0.3-52.4S38.9,73.3,30,82.1c0-8,0.1-15.9,0.1-23.9C42,46.4,53.8,34.6,65.6,22.7
		C77.5,34.5,89.4,46.4,101.3,58.2z"/>
</g>
</svg>
