<?xml version="1.0" encoding="utf-8"?>
<!-- Generator: Adobe Illustrator 20.1.0, SVG Export Plug-In . SVG Version: 6.00 Build 0)  -->
<svg version="1.1" id="Layer_1" xmlns="http://www.w3.org/2000/svg" xmlns:xlink="http://www.w3.org/1999/xlink" x="0px" y="0px"
	 viewBox="0 0 512 512" style="enable-background:new 0 0 512 512;" xml:space="preserve">
<style type="text/css">
	.st0{fill:#4A4A4A;}
	.st1{fill:#FFFFFF;}
</style>
<g>
	<path class="st0" d="M437,75c-46.3-46.3-110.4-75-181-75C185.4,0,121.3,28.6,75,75C28.8,121.3,0,185.4,0,256
		c0,70.7,28.8,134.7,75,181c46.3,46.3,110.4,75,181.1,75c70.6,0,134.6-28.6,181-75c46.2-46.4,75-110.3,75-181
		C512,185.4,483.2,121.3,437,75z"/>
	<path class="st1" d="M281,150.7c-6.8-0.9-15.5-3.7-17,5.3c-1.7,9.3,8,8.7,14.3,10c42.8,9.3,57.4,24.6,64.5,66.1
		c0.3,1.7,0.5,3.9,0.5,5.8c0.5,4.9,1.7,9.3,9.2,8c3.7-0.5,5.1-2.5,5.3-5.4c0.5-2.6,0-6,0.3-8.3C358.3,192.1,323.5,155.9,281,150.7
		L281,150.7z M285,183.4c-4.4,0-8.8,0.5-10.5,5.3c-2.6,6.8,2.7,8.7,8,9.5c17.5,2.6,26.7,12.8,28.5,29.7c0.2,2.4,1,4.2,2,5.8
		c1.5,1.7,3.4,2.4,5.8,2.2c1.5,0,2.7-0.5,3.7-1c2.9-2.2,3.4-6.3,3.1-10.5C325.9,205.2,303.8,182.9,285,183.4L285,183.4z M373.6,318
		c-8.7-6.8-18.2-12.9-27-19.2c-18.2-12.2-34.8-13.2-48.2,6.6c-7.6,11.2-18.3,11.7-29.4,6.8c-30.7-13.4-54.4-34.3-68.3-65.1
		c-2-4.8-3.4-9.3-3.6-13.6c-0.5-8.2,2.9-15.3,12.1-21.6c7.6-4.9,15.1-10.9,14.6-21.9c-0.7-14.4-36.4-62.5-50.6-67.8
		c-5.8-2-11.6-1.7-17.5,0c-33.1,11-46.7,37.6-33.6,69c7.5,17.7,15.5,34.2,25,49.6c40.6,68,100.4,117.6,177.5,150
		c5.3,2.2,11.2,3.2,14.4,3.9c21.6,0.3,46.7-20.2,54-40.3C400.1,335,385.2,327.5,373.6,318L373.6,318z M267.5,132
		c69.1,10.5,100.9,42.8,109.7,110.9c0,0.7,0,1.2,0,1.7c0.5,6.3-0.7,14.5,7.6,14.5c7.3,0.2,7.6-5.3,7.6-10.5
		c-0.3-1.9-0.3-3.4-0.3-4.9c0.8-64.4-56.4-124.2-122.6-126.2c-5.3,0.8-15.5-3.4-16.3,7.6C253,132.3,261.7,131.3,267.5,132L267.5,132
		z"/>
</g>
</svg>
