<svg version="1" xmlns="http://www.w3.org/2000/svg" width="1600" height="800" viewBox="3000 3500 12000 8000">
    <path fill="#fff" d="M3527 9663c-4-3-7-447-7-985v-978l667 2 666 3 19 34c10 18 25 40 33 48s15 19 15 24 5 9 10 9a616 616 0 0 1 140 140c12 0 60 48 60 60 0 6 4 10 9 10s23 14 40 31 31 35 31 40 4 9 8 9c5 0 22 11 38 25s35 25 42 25c6 0 12 5 12 10 0 6 13 10 29 10s31 5 33 12c6 16 450 16 456 0 2-7 14-12 26-12s32-9 44-20 25-20 29-20c12-1 53-37 53-47 1-4 18-21 39-38 21-16 47-42 57-58 11-15 27-30 37-33 9-3 17-12 17-20s4-14 8-14 37-30 72-66c88-89 87-87 108-125l19-34 746-3 747-2v1970H6735c-602 0-1096-1-1097-2l-8-178c-13-331-31-650-39-692-8-48-21 362-21 680v192H4552c-560 0-1022-3-1025-7zm2427-231c2-4 35-9 73-10 37-2 70-7 71-12 2-6 30-10 63-10s59-4 59-10 27-10 60-10 60-4 60-8 54-13 121-18c80-7 123-14 129-23 4-8 12-11 17-8s7-10 5-29-8-37-13-40-9-16-9-28c0-22-2-23-42-13-24 5-51 13-60 18-10 5-27 9-38 9-12 0-18 5-15 10 4 6-6 10-24 10-16 0-32 4-35 9s-30 12-60 15c-30 4-57 13-59 20-3 8-20 16-39 20-78 16-88 19-88 27 0 5-6 6-14 3s-25 1-38 9c-13 9-44 19-70 22-27 4-48 11-48 16s-9 9-20 9-20 7-20 15c0 16 25 21 34 7zm-691-23c4-14-4-19-44-24-27-4-56-14-65-22-8-8-24-13-34-10-11 3-20 1-20-4s-11-9-24-9c-14 0-28-4-31-10-3-5-19-10-35-10-15 0-30-6-33-14-4-9-28-17-61-21-31-4-56-11-56-16s-13-9-30-9c-16 0-30-4-30-10 0-5-9-10-20-10s-28-4-38-9c-9-5-36-13-59-18-38-9-43-8-43 8 0 10-4 20-9 23s-11 24-13 45c-2 22 0 37 3 35 4-2 9 0 11 6 3 11 126 29 201 30 26 0 47 5 47 10 0 6 27 10 60 10s60 4 60 10 26 10 58 10 62 4 68 9c5 6 32 11 59 13l62 4c6 0 14-7 16-17zm657-169c0-5 11-10 25-10s25-4 25-10c0-5 11-10 25-10s25-4 25-10c0-5 11-10 25-10s25-4 25-10c0-5 3-9 8-8 17 4 102-15 102-23 0-5 11-9 24-9s26-6 29-14 25-17 49-21 48-10 53-14c18-11 80-31 98-31 9 0 17-4 17-10 0-5 12-10 26-10s23-4 19-10c-3-6 5-10 19-10s27-4 30-9c4-5 28-12 56-16 27-4 54-13 60-20s29-16 51-20c21-4 41-11 45-16 3-5 13-9 23-9s24-6 30-14 32-17 56-20c25-4 47-11 50-17 4-5 17-9 31-9 15 0 24-6 24-15 0-8-4-15-10-15-5 0-10-9-10-19 0-11-4-23-10-26-5-3-10-15-10-26 0-10-4-19-9-19s-12-15-16-32c-4-18-9-27-12-20-2 6-11 12-19 12s-14 5-14 10c0 6-9 10-21 10-11 0-17 5-14 10 3 6-2 10-12 10s-27 7-37 15c-11 8-26 15-33 15s-22 9-33 20a69 69 0 0 1-40 20c-11 0-20 5-20 10 0 6-7 10-15 10s-15 5-15 10c0 6-6 10-14 10-21 0-67 26-59 33 3 4-3 7-15 7s-22 5-22 10c0 6-9 10-20 10s-29 9-40 20-24 20-28 20c-15 0-69 30-82 45-6 7-25 17-41 20-16 4-29 11-29 16s-6 9-13 9c-18 0-67 24-67 33 0 4-9 7-21 7-11 0-17 5-14 10 3 6 1 10-6 10-19 0-99 41-99 50 0 4-12 11-27 15-14 3-38 15-51 26-14 10-33 19-42 19-10 0-20 7-24 15-3 8-1 15 4 15 6 0 10-4 10-10zm-640-23c0-11-68-47-90-47-6 0-10-4-10-9s-38-28-85-51-85-46-85-51-6-9-13-9c-13 0-55-20-136-65-24-14-50-25-58-25-7 0-13-7-13-15s-14-17-35-21c-19-3-35-10-35-15s-7-9-15-9-15-4-15-10c0-5-9-10-20-10s-20-4-20-10c0-5-9-10-20-10s-20-4-20-10c0-5-7-10-15-10s-15-4-15-10c0-5-16-12-35-16-19-3-35-10-35-14 0-10-80-50-99-50-7 0-9-4-6-10 3-5-3-10-14-10-12 0-21-4-21-10 0-5-7-10-15-10s-15-6-15-12c-1-7-10 7-21 32l-30 62c-5 10-9 25-9 33s-4 15-10 15c-5 0-10 7-10 15 0 10 10 15 30 15 17 0 30 4 30 9s19 11 41 15c23 4 51 13 62 21 12 8 29 15 39 15s18 4 18 9 23 12 50 16c31 4 50 12 50 20s19 16 50 20c28 4 50 11 50 16s11 9 25 9 25 5 25 10c0 6 11 10 24 10 14 0 28 5 31 10 3 6 17 10 30 10s27 5 30 10c3 6 15 10 26 10 10 0 19 4 19 9s22 12 49 16c28 4 55 13 62 21 6 8 20 14 30 14s21 4 24 10c3 5 28 12 55 16 28 4 50 10 50 15s11 9 25 9 25 5 25 10c0 6 11 10 25 10s25 5 25 10c0 6 5 10 10 10 6 0 10-6 10-13zm-31-210c-30-30-71-75-92-101-21-25-74-82-117-126s-76-80-74-80c3 0-1-6-8-14l-52-59-39-46-50 52c-50 50-50 51-29 65 11 7 31 22 43 33 12 10 27 19 34 19s21 11 31 25 24 25 31 25 23 11 37 25 30 25 36 25c5 0 10 5 10 10 0 6 5 10 10 10 12 0 28 12 71 53 15 15 32 27 37 27s18 8 30 18c54 46 63 52 72 52 6 0 10 5 10 10 0 6 5 10 11 10s17 7 26 15c8 9 18 14 21 11s-19-30-49-59zm729 33c12-11 26-20 32-20 5 0 10-4 10-9s9-13 20-16 20-12 20-20c0-7 10-15 23-19 13-3 35-17 50-30 15-14 40-33 57-42 16-10 30-22 30-26s5-8 11-8c7 0 19-8 28-17 9-10 33-27 54-37 20-11 37-25 37-33 0-7 6-13 13-13 8 0 24-9 36-19 12-11 32-26 43-33 21-14 21-15-19-54-21-21-45-48-51-59s-12-15-12-9c0 11-19 34-80 102a848 848 0 0 1-87 101c-43 43-103 107-133 141-30 35-73 80-94 101-40 40-29 57 12 19zM8194 9643c-14-22-20-68-30-233-36-577-45-806-44-1247v-463h450v809c0 955-15 859 133 863l92 3 3 148 3 147h-589l-18-27zM8982 9637c-18-18-32-38-32-44s-7-16-15-23-15-21-15-31c0-11-4-19-8-19-19 0-42-158-42-284 0-116 21-259 39-276 4-3 15-23 26-45 27-53 90-117 145-146 44-23 53-23 333-27l287-4v-68c0-54-4-73-22-95l-22-28-150 7c-160 6-363 21-458 32l-58 7v-380l46-7c26-3 71-6 100-6 30 0 54-4 54-9 0-4 44-11 98-14l290-18c206-13 262-8 345 30 50 23 118 89 151 147 55 97 56 112 56 747v587h-388l-7-46-7-46-21 20c-12 10-43 31-68 46l-46 26h-579l-32-33zm563-327c28-4 74-14 103-21l52-14v-155h-174c-213 0-219 2-220 99-1 85 18 101 118 100 39 0 94-4 121-9zM10270 9484v-185l123 6c67 3 172 10 232 15 61 6 181 13 267 16l157 7 31-33c26-28 30-39 30-91v-59h-272c-347 0-378-7-469-103-57-60-89-129-105-227-32-194-6-385 69-504 35-56 136-126 182-126 14 0 25-5 25-10 0-7 148-9 438-8l437 3 3 193 2 192h-343c-382 0-363-3-388 68-9 26-8 38 8 69l18 38 270 6c260 5 345 15 345 41 0 4 6 8 14 8 22 0 93 68 124 118 52 85 67 159 67 332 0 133-3 165-22 226-13 39-32 82-43 96-11 15-20 30-20 34s-12 21-27 36l-27 28h-1126v-186zM11754 9626c-20-25-46-66-57-93-10-26-24-59-31-72-17-36-16-1003 2-1009 6-2 12-13 12-24 0-66 124-228 175-228 8 0 15-4 15-9s31-17 69-25c103-23 565-23 662 1 38 9 69 20 69 24s10 9 23 13c31 7 99 77 130 133 14 27 35 84 46 127 19 72 21 108 21 388v308h-810v70c0 57 4 74 22 95 21 24 25 25 152 25 72 0 199-7 281-15l228-22 77-6v363h-1049l-37-44zm706-932c0-58-5-97-16-120l-16-34h-148c-156 0-180 3-180 26 0 8-4 14-10 14s-10 40-10 100v100h380v-86zM3533 7566a364 364 0 0 1-93-189c0-13-6-29-12-36-10-9-13-156-13-666s3-657 13-667c6-6 12-22 12-35 0-12 12-53 27-90 33-83 108-163 185-197 91-40 180-46 648-46h440v420h-389c-426 0-440 2-473 58-17 28-18 73-18 560v529l25 27 24 26h199c175 0 259-5 452-25l113-11 67-7v393H3572l-39-44zM4768 7558c11-29 26-78 35-108 14-47 79-260 122-395l34-110 62-200 60-195 35-115 23-70c5-11 15-45 24-75a35130 35130 0 0 1 187-607l13-43h482l19 63 26 82c5 11 24 74 44 140l51 165c8 25 15 53 15 63 0 9 5 17 10 17 6 0 10 8 10 18 0 9 16 69 36 132a11600 11600 0 0 1 73 235c5 11 16 47 26 80l35 115 35 115c10 33 21 69 26 80 4 11 16 47 25 80 10 33 32 107 51 164 18 57 33 112 33 122 0 11 5 19 10 19 6 0 10 8 10 18 0 16 9 47 51 173 33 97 51 90-217 87l-236-3-38-125c-21-69-41-137-44-152l-6-28h-568l-11 31c-6 18-11 43-11 55 0 13-4 24-9 24-4 0-11 15-15 33-3 17-14 61-24 97l-18 65-242 3-242 2 18-52zm1007-665l-18-58c-5-22-13-49-17-60-5-11-15-47-24-80l-35-125-36-130-28-104-11-39-17 54c-36 119-49 167-49 187 0 12-4 22-9 22s-11 15-13 33c-3 17-15 66-26 107l-41 143-18 67h174c163 0 175-1 168-17zM6510 7420c0-146 3-192 13-196 7-2 96 3 197 11 203 18 672 32 713 21 17-4 32-20 46-49 18-37 21-62 21-180v-137h-311c-263 0-321-3-377-17-37-10-69-20-72-23s-21-13-41-23c-80-41-139-121-176-240-25-79-26-92-26-322 0-232 1-243 26-320 60-183 157-267 340-294 49-7 237-11 507-11h430v420h-381c-372 0-382 1-420 22-49 28-69 76-69 170 0 88 22 150 58 169 20 10 107 15 327 20 309 7 328 9 414 54 37 19 112 93 134 132 27 49 57 151 57 194 0 22 5 39 10 39 6 0 10 75 10 204 0 126-4 207-10 211-5 3-10 21-10 39 0 79-77 242-133 281-18 13-111 15-649 15h-628v-190zM8120 6625v-985h513c648 0 697 7 809 108 54 49 82 95 115 189l28 78v345c0 304-2 352-18 405-50 166-126 253-257 295-57 18-91 20-401 20h-339v530h-450v-985zm998 0c16-19 22-39 22-70 0-24 5-47 10-50 6-4 10-62 10-140s-4-136-10-140c-5-3-10-25-10-48 0-48-20-77-67-101-27-13-71-16-268-16h-235v600l233 2c127 2 246 0 262-4 17-4 40-19 53-33z"/>
</svg>