<?xml version="1.0" encoding="utf-8"?>
<!-- Generator: Adobe Illustrator 21.1.0, SVG Export Plug-In . SVG Version: 6.00 Build 0)  -->
<svg version="1.1" id="Capa_1" xmlns="http://www.w3.org/2000/svg" xmlns:xlink="http://www.w3.org/1999/xlink" x="0px" y="0px"
	 viewBox="0 0 140 132.3" style="enable-background:new 0 0 140 132.3;" xml:space="preserve">
<style type="text/css">
	.st0{fill:#2CB742;}
	.st1{fill:#FFFFFF;}
	.st2{fill:#7F4DA0;}
	.st3{fill:#139BD0;}
</style>
<g>
	<g>
		<path class="st0" d="M35.7,128.7l5.7-17.2c-2.9-4.9-4.6-10.6-4.6-16.7c0-18.1,14.7-32.7,32.7-32.7s32.7,14.7,32.7,32.7
			s-14.7,32.7-32.7,32.7c-5.5,0-10.7-1.4-15.2-3.8L35.7,128.7z"/>
		<path class="st1" d="M90.5,105.8c-1.5-2.9-7.1-6.1-7.1-6.1c-1.3-0.7-2.8-0.8-3.5,0.5c0,0-1.8,2.2-2.3,2.5c-2.1,1.4-4.1,1.4-6-0.6
			L67,97.4l-4.6-4.6c-2-2-2-3.9-0.6-6c0.3-0.5,2.5-2.3,2.5-2.3c1.3-0.7,1.2-2.2,0.5-3.5c0,0-3.3-5.6-6.1-7.1
			c-1.2-0.6-2.7-0.4-3.7,0.6l-2,2c-6.4,6.4-3.3,13.6,3.2,20l5.9,5.9l5.9,5.9c6.4,6.4,13.6,9.6,20,3.2l2-2
			C90.9,108.5,91.1,107,90.5,105.8z"/>
	</g>
	<g>
		<g>
			<path id="Viber" class="st2" d="M39.4,27c1.3,0.3,2.3,0.8,3.1,1.6c1.1,1,1.7,2.3,2,4.1c0.2,1.2,0.1,1.6-0.3,2
				c-0.4,0.4-1.1,0.4-1.5,0c-0.3-0.2-0.4-0.5-0.5-1.2c-0.1-0.9-0.2-1.5-0.5-2.1c-0.6-1.2-1.6-1.9-3.3-2.1c-0.8-0.1-1.1-0.2-1.3-0.5
				c-0.5-0.6-0.3-1.5,0.4-1.8c0.3-0.1,0.4-0.1,0.9-0.1C38.6,26.9,39.1,26.9,39.4,27z M38,22c4,0.6,7.1,2.4,9.1,5.4
				c1.1,1.7,1.8,3.7,2.1,5.8c0.1,0.8,0.1,2.2,0,2.4c-0.1,0.2-0.4,0.5-0.6,0.7c-0.3,0.1-0.8,0.1-1.1,0c-0.5-0.3-0.7-0.7-0.7-1.8
				c0-1.7-0.4-3.5-1.2-4.9c-0.9-1.6-2.1-2.9-3.7-3.8c-1.3-0.8-3.3-1.4-5.1-1.5c-0.6-0.1-1-0.2-1.2-0.5c-0.4-0.4-0.4-1-0.1-1.5
				C35.9,21.9,36.4,21.8,38,22z M22.5,18c0.2,0.1,0.6,0.3,0.8,0.4c1.3,0.8,4.7,5.3,5.9,7.5c0.7,1.3,0.9,2.2,0.7,2.9
				c-0.2,0.7-0.6,1.1-2.1,2.4c-0.6,0.5-1.2,1-1.3,1.2c-0.2,0.3-0.4,1-0.4,1.5c0,1.1,0.7,3.1,1.7,4.6c0.7,1.2,2,2.7,3.3,3.9
				c1.5,1.4,2.8,2.3,4.3,3.1c1.9,1,3.1,1.2,4,0.8c0.2-0.1,0.4-0.2,0.5-0.3c0.1-0.1,0.6-0.7,1.1-1.4c1.1-1.3,1.3-1.6,2-1.8
				c0.9-0.3,1.9-0.2,2.8,0.3c0.7,0.4,2.3,1.4,3.3,2.1c1.3,0.9,4.2,3.3,4.6,3.7c0.7,0.8,0.8,1.9,0.3,3.1c-0.5,1.3-2.4,3.6-3.7,4.6
				c-1.2,0.9-2,1.3-3.2,1.3c-0.9,0-1.3,0-2.5-0.5C35.4,53.5,28,47.8,22.2,40c-3.1-4.1-5.4-8.3-7-12.7c-0.9-2.6-1-3.7-0.2-5
				c0.3-0.6,1.7-1.9,2.8-2.7c1.7-1.3,2.5-1.7,3.1-1.9C21.3,17.7,22,17.8,22.5,18z M37.5,17.3c2.3,0.3,4.1,0.8,6.1,1.8
				c2,1,3.2,1.9,4.9,3.5c1.6,1.6,2.4,2.8,3.4,4.6c1.3,2.6,2,5.6,2.1,9c0,1.1,0,1.4-0.3,1.7c-0.5,0.6-1.6,0.5-2-0.2
				c-0.1-0.2-0.2-0.4-0.2-1.4c-0.1-1.4-0.2-2.3-0.4-3.4c-0.8-4.3-2.8-7.7-6.1-10.1c-2.7-2.1-5.6-3-9.3-3.3c-1.3-0.1-1.5-0.1-1.8-0.3
				c-0.5-0.4-0.6-1.4,0-1.8c0.3-0.3,0.5-0.3,1.6-0.3C36.3,17.1,37.1,17.2,37.5,17.3z M35.6,3.7c18.4,0,33.3,14.9,33.3,33.3
				S53.9,70.3,35.6,70.3S2.3,55.4,2.3,37S17.2,3.7,35.6,3.7z"/>
			<g>
				<path class="st1" d="M49.1,45.1c-1-0.7-2.6-1.7-3.3-2.1c-1-0.5-1.9-0.6-2.8-0.3c-0.7,0.2-1,0.5-2,1.8c-0.6,0.7-1.1,1.3-1.1,1.4
					c-0.1,0.1-0.3,0.2-0.5,0.3c-0.9,0.4-2,0.2-4-0.8c-1.5-0.7-2.8-1.7-4.3-3.1c-1.3-1.2-2.6-2.7-3.3-3.9c-0.9-1.5-1.6-3.5-1.7-4.6
					c0-0.5,0.2-1.1,0.4-1.5c0.1-0.1,0.7-0.7,1.3-1.2c1.6-1.3,1.9-1.6,2.1-2.4c0.2-0.7,0-1.6-0.7-2.9c-1.1-2.2-4.6-6.7-5.9-7.5
					c-0.2-0.1-0.6-0.3-0.8-0.4c-0.5-0.2-1.2-0.2-1.6-0.2c-0.6,0.1-1.4,0.6-3.1,1.9c-1,0.8-2.4,2.1-2.8,2.7c-0.8,1.3-0.7,2.4,0.2,5
					c1.6,4.4,3.9,8.6,7,12.7c5.9,7.8,13.2,13.5,22.5,17.3c1.2,0.5,1.6,0.6,2.5,0.5c1.1-0.1,2-0.4,3.2-1.3c1.3-1,3.2-3.4,3.7-4.6
					c0.5-1.2,0.3-2.3-0.3-3.1C53.3,48.3,50.4,46,49.1,45.1z"/>
				<path class="st1" d="M46.8,34.6c0,1.1,0.2,1.5,0.7,1.8c0.3,0.2,0.8,0.2,1.1,0c0.2-0.1,0.5-0.4,0.6-0.7c0.1-0.2,0.1-1.7,0-2.4
					c-0.2-2.1-1-4.1-2.1-5.8c-2-3-5.1-4.9-9.1-5.4c-1.6-0.2-2.1-0.2-2.4,0.4c-0.3,0.5-0.3,1.1,0.1,1.5c0.2,0.3,0.6,0.4,1.2,0.5
					c1.8,0.1,3.7,0.7,5.1,1.5c1.5,0.9,2.8,2.2,3.7,3.8C46.4,31.1,46.8,32.9,46.8,34.6z"/>
				<path class="st1" d="M39.4,27c-0.3-0.1-0.8-0.1-1.1-0.1c-0.6,0-0.7,0-0.9,0.1c-0.7,0.3-0.8,1.3-0.4,1.8c0.3,0.3,0.5,0.4,1.3,0.5
					c1.7,0.2,2.7,0.9,3.3,2.1c0.3,0.6,0.4,1.2,0.5,2.1c0.1,0.7,0.2,0.9,0.5,1.2c0.4,0.3,1.2,0.3,1.5,0c0.4-0.4,0.5-0.8,0.3-2
					c-0.3-1.8-0.9-3-2-4.1C41.7,27.8,40.7,27.3,39.4,27z"/>
				<path class="st1" d="M51.6,36.4c0,0.9,0.1,1.1,0.2,1.4c0.4,0.7,1.5,0.8,2,0.2c0.3-0.3,0.3-0.6,0.3-1.7c-0.1-3.4-0.9-6.4-2.1-9
					c-0.9-1.8-1.8-3-3.4-4.6c-1.7-1.7-2.9-2.6-4.9-3.5c-2-1-3.8-1.5-6.1-1.8c-0.4-0.1-1.3-0.1-1.8-0.1c-1.1,0-1.3,0-1.6,0.3
					c-0.5,0.5-0.5,1.4,0,1.8c0.3,0.2,0.5,0.3,1.8,0.3c3.7,0.2,6.5,1.2,9.3,3.3c3.3,2.5,5.3,5.9,6.1,10.1
					C51.5,34.1,51.6,35,51.6,36.4z"/>
			</g>
		</g>
		<g>
			<circle class="st3" cx="104.3" cy="37" r="33.4"/>
			<path class="st1" d="M105.4,45c-1.3,1.3-2.6,2.5-3.8,3.7c-0.4,0.4-0.9,0.7-1.6,0.6c-0.4,0-0.7-0.2-0.8-0.6c-1-3-2-6-2.9-9
				c-0.1-0.3-0.2-0.4-0.5-0.5c-2.3-0.7-4.6-1.4-6.8-2.1c-0.3-0.1-0.7-0.3-1-0.5c-0.5-0.3-0.5-0.8-0.1-1.2c0.4-0.3,0.8-0.6,1.3-0.8
				c2.8-1.1,5.6-2.2,8.4-3.3c7.1-2.7,14.2-5.5,21.3-8.2c1.4-0.5,2.4,0.2,2.2,1.7c-0.1,0.9-0.3,1.9-0.5,2.8
				c-1.5,7.3-3.1,14.6-4.6,21.8c-0.4,1.7-1.6,2.2-3,1.1c-2.4-1.8-4.8-3.5-7.1-5.3C105.7,45.2,105.6,45.1,105.4,45z M100.1,47.2
				C100.1,47.2,100.1,47.2,100.1,47.2c0.1-0.1,0.1-0.2,0.1-0.2c0.2-1.7,0.3-3.3,0.4-5c0-0.4,0.2-0.6,0.4-0.9c2.2-2,4.4-3.9,6.6-5.9
				c2.4-2.2,4.8-4.4,7.3-6.6c0.1-0.1,0.2-0.4,0.3-0.6c-0.2,0-0.5-0.1-0.7-0.1c-0.3,0.1-0.5,0.2-0.8,0.4c-5.3,3.4-10.7,6.7-16,10.1
				c-0.3,0.2-0.4,0.4-0.2,0.7c0.4,1.1,0.8,2.3,1.1,3.4C99.1,44.2,99.6,45.7,100.1,47.2z"/>
		</g>
	</g>
</g>
</svg>
