<svg xmlns="http://www.w3.org/2000/svg" width="45" height="35" viewBox="20 0 33 26">
    <g fill="none">
        <path fill="#fff" d="M29.723 24.791v-1.648a.975.975 0 0 0-1.03-1.041 1.016 1.016 0 0 0-.924.467.964.964 0 0 0-.868-.467.868.868 0 0 0-.77.39v-.324h-.57v2.623h.576v-1.453a.613.613 0 0 1 .643-.698c.38 0 .572.247.572.692v1.46h.577v-1.454a.618.618 0 0 1 .642-.698c.39 0 .577.247.577.692v1.46h.575zm3.214-1.31v-1.31h-.577v.318a.995.995 0 0 0-.824-.385 1.374 1.374 0 0 0 0 2.748c.32.012.627-.131.824-.385v.319h.571l.006-1.305zm-2.124 0a.794.794 0 1 1 .797.84.786.786 0 0 1-.802-.84h.005zm14.333-1.374c.188 0 .374.035.55.105a1.33 1.33 0 0 1 .745.728c.142.352.142.746-.001 1.098-.07.164-.17.313-.297.437-.129.126-.281.225-.448.291-.362.141-.764.141-1.126 0a1.34 1.34 0 0 1-.739-.728 1.459 1.459 0 0 1 0-1.098 1.34 1.34 0 0 1 .739-.728c.18-.076.375-.114.571-.113l.006.008zm0 .55a.852.852 0 0 0-.327.06.772.772 0 0 0-.434.448.953.953 0 0 0 0 .681.77.77 0 0 0 .434.448.893.893 0 0 0 .926-.173.797.797 0 0 0 .173-.275.953.953 0 0 0 0-.681.797.797 0 0 0-.173-.275.786.786 0 0 0-.275-.173.852.852 0 0 0-.33-.077l.006.017zm-9.105.824c0-.824-.51-1.374-1.244-1.374a1.374 1.374 0 1 0 .038 2.747c.391.014.774-.117 1.074-.368l-.274-.423a1.25 1.25 0 0 1-.764.275.728.728 0 0 1-.786-.643h1.948c.008-.069.008-.137.008-.214zm-1.953-.231a.676.676 0 0 1 .69-.635.651.651 0 0 1 .664.638l-1.354-.003zm4.357-.412a1.69 1.69 0 0 0-.824-.225c-.313 0-.5.115-.5.307 0 .193.198.226.445.259l.275.038c.571.082.917.324.917.786 0 .461-.44.857-1.195.857a1.893 1.893 0 0 1-1.134-.34l.274-.446c.252.187.56.284.874.275.39 0 .599-.115.599-.319 0-.148-.149-.23-.462-.275l-.274-.038c-.588-.082-.907-.346-.907-.775 0-.522.429-.84 1.099-.84.375-.013.746.082 1.069.274l-.256.462zm2.747-.148h-.931v1.184c0 .274.093.44.38.44.177-.007.351-.058.505-.15l.164.49a1.34 1.34 0 0 1-.714.203c-.676 0-.912-.362-.912-.972V22.69h-.533v-.522h.533v-.797h.577v.797h.931v.522zm1.976-.588c.138 0 .276.024.406.071l-.176.55a.929.929 0 0 0-.357-.066c-.373 0-.55.241-.55.675v1.47h-.57V22.18h.565v.318a.775.775 0 0 1 .693-.384l-.011-.011zm3.95 2.307a.275.275 0 0 1 .19.075.255.255 0 0 1-.085.423.258.258 0 0 1-.105.022.275.275 0 0 1-.247-.16.258.258 0 0 1 .058-.285.275.275 0 0 1 .175-.075h.014zm0 .465a.195.195 0 0 0 .143-.06.203.203 0 0 0-.143-.347.206.206 0 0 0-.145.06.203.203 0 0 0 0 .275c.038.04.09.06.145.06v.012zm.017-.327a.11.11 0 0 1 .071.022.069.069 0 0 1 .025.057.066.066 0 0 1-.02.05.096.096 0 0 1-.057.025l.08.09h-.064l-.074-.09h-.025v.09h-.052v-.253l.116.009zm-.06.046v.066h.06c.01.004.022.004.033 0a.027.027 0 0 0 0-.024.027.027 0 0 0 0-.025.058.058 0 0 0-.033 0l-.06-.017z" />
        <path fill="#7673C0" d="M31.714 2.151h8.654v15.552h-8.654z" />
        <path fill="#EB001B" d="M32.264 9.929A9.874 9.874 0 0 1 36.04 2.15a9.89 9.89 0 1 0 0 15.552 9.874 9.874 0 0 1-3.777-7.774z" />
        <path fill="#00A1DF" d="M52.041 9.929a9.89 9.89 0 0 1-16 7.774 9.89 9.89 0 0 0 0-15.552 9.89 9.89 0 0 1 16.003 7.775l-.003.003z" />
    </g>
</svg>