<svg xmlns="http://www.w3.org/2000/svg" width="45" height="35" viewBox="20 0 33 26">
    <g fill="none">
        <path fill="#fff" d="M25.951 24.755v-1.63c0-.625-.38-1.033-1.033-1.033-.326 0-.679.11-.923.462-.19-.299-.462-.462-.87-.462a.878.878 0 0 0-.76.38v-.325h-.572v2.608h.571v-1.44c0-.462.245-.68.625-.68s.57.245.57.68v1.44h.571v-1.44c0-.462.272-.68.625-.68.38 0 .571.245.571.68v1.44h.625zm8.451-2.608h-.924v-.788h-.57v.788h-.517v.516h.517v1.196c0 .598.244.95.896.95.245 0 .517-.08.707-.19l-.163-.489a.894.894 0 0 1-.49.136c-.271 0-.38-.163-.38-.434v-1.169h.924v-.516zm4.837-.055a.766.766 0 0 0-.68.38v-.325h-.57v2.608h.57v-1.467c0-.435.191-.68.544-.68.109 0 .245.028.354.055l.163-.543c-.11-.028-.272-.028-.38-.028zm-7.31.272c-.271-.19-.652-.272-1.06-.272-.652 0-1.086.326-1.086.843 0 .435.326.68.896.76l.272.028c.299.054.462.136.462.272 0 .19-.217.326-.598.326a1.5 1.5 0 0 1-.87-.272l-.271.435c.299.217.706.326 1.114.326.76 0 1.196-.353 1.196-.843 0-.462-.354-.706-.897-.788l-.272-.027c-.244-.027-.435-.081-.435-.244 0-.19.19-.3.49-.3.326 0 .652.137.815.218l.244-.462zm15.163-.272a.766.766 0 0 0-.679.38v-.325h-.57v2.608h.57v-1.467c0-.435.19-.68.544-.68.108 0 .244.028.353.055l.163-.543c-.109-.028-.272-.028-.38-.028zm-7.282 1.36c0 .787.543 1.358 1.386 1.358.38 0 .652-.082.924-.3l-.272-.461a1.098 1.098 0 0 1-.68.244c-.461 0-.788-.326-.788-.842 0-.489.327-.815.788-.842.245 0 .462.081.68.244l.272-.462c-.272-.217-.544-.299-.924-.299-.843 0-1.386.571-1.386 1.36zm5.272 0v-1.305h-.571v.326c-.19-.245-.462-.38-.815-.38-.734 0-1.305.57-1.305 1.358 0 .788.571 1.359 1.305 1.359.38 0 .652-.136.815-.38v.325h.57v-1.304zm-2.093 0c0-.463.299-.843.788-.843.462 0 .788.353.788.842 0 .462-.326.842-.788.842-.489-.027-.788-.38-.788-.842zm-6.82-1.36c-.761 0-1.305.544-1.305 1.36 0 .814.544 1.358 1.332 1.358.38 0 .76-.109 1.06-.353l-.272-.408c-.218.163-.49.272-.761.272-.353 0-.707-.163-.788-.625h1.93v-.218c.026-.842-.463-1.386-1.197-1.386zm0 .49c.353 0 .597.217.652.625h-1.359c.054-.354.299-.625.706-.625zm14.157.87v-2.338h-.57v1.359c-.19-.245-.463-.38-.816-.38-.733 0-1.304.57-1.304 1.358 0 .788.57 1.359 1.304 1.359.38 0 .652-.136.815-.38v.325h.571v-1.304zm-2.092 0c0-.463.299-.843.788-.843.462 0 .788.353.788.842 0 .462-.326.842-.788.842-.49-.027-.788-.38-.788-.842zm-19.076 0v-1.305h-.571v.326c-.19-.245-.462-.38-.815-.38-.734 0-1.305.57-1.305 1.358 0 .788.571 1.359 1.305 1.359.38 0 .652-.136.815-.38v.325h.57v-1.304zm-2.12 0c0-.463.299-.843.788-.843.462 0 .788.353.788.842 0 .462-.326.842-.788.842-.489-.027-.788-.38-.788-.842z"/>
        <path fill="#FF5F00" d="M31.739 2.337h8.56v15.38h-8.56z"/>
        <path fill="#EB001B" d="M32.283 10.027a9.808 9.808 0 0 1 3.722-7.69A9.723 9.723 0 0 0 29.973.245a9.776 9.776 0 0 0-9.783 9.782 9.776 9.776 0 0 0 9.783 9.783 9.723 9.723 0 0 0 6.032-2.093 9.768 9.768 0 0 1-3.722-7.69z"/>
        <path fill="#F79E1B" d="M51.848 10.027a9.776 9.776 0 0 1-9.783 9.783 9.723 9.723 0 0 1-6.032-2.093 9.727 9.727 0 0 0 3.722-7.69 9.808 9.808 0 0 0-3.722-7.69A9.723 9.723 0 0 1 42.065.245c5.408 0 9.783 4.402 9.783 9.782z"/>
    </g>
</svg>