<svg xmlns="http://www.w3.org/2000/svg" width="47" height="15" viewBox="0 0 47 15"><defs><linearGradient id="a" x1="16.705%" x2="81.361%" y1="43.611%" y2="43.611%"><stop stop-color="#38AEE4" offset="0%"/><stop stop-color="#197CCE" offset="100%"/></linearGradient></defs><g fill="none"><path fill="#3BA336" d="M4.147 14.13h-4.086v-13.223h4.086c1.829 0 2.231 1.38 2.439 2.069l1.686 5.711c.031.111.066.185.165.19.099-.005.134-.079.165-.19l1.686-5.711c.208-.689.611-2.069 2.439-2.069h4.086v13.223h-4.086v-7.782c-.072-.204-.362-.167-.409.001l-2.452 7.782h-2.86l-2.452-7.782c-.047-.167-.336-.205-.409-.001v7.782zm18.623-13.223h-4.086v13.223h4.086c.702 0 1.116-.334 1.804-1.819l2.729-6.03c.047-.167.343-.205.415-.001v7.85h4.086v-13.223h-4.086c-.919.048-1.369 1.103-1.7 1.819l-2.84 5.963c-.047.167-.336.205-.409.001v-7.782zm11.024 6.032h12.839c-.432 1.282-1.919 2.954-4.219 2.954h-4.534v4.237h-4.086v-7.191z"/><path fill="url(#a)" d="M46.817 6.281h-6.769c-3.274 0-6.268-1.811-6.787-5.374h9.154c2.79 0 4.941 2.554 4.403 5.374z"/></g></svg>