<?xml version="1.0" encoding="UTF-8"?><svg viewBox="0 0 129 57" xmlns="http://www.w3.org/2000/svg"><g fill="none" fill-rule="evenodd"><g fill="#F08300"><path d="M67.2 45.7c.9 0 1.3-.4 1.3-1 0-.7-.5-1-1.3-1h-1.4v2h1.4zm-.1-2.9c.7 0 1.1-.4 1.1-1s-.4-.9-1.2-.9h-1.2v2h1.3zm-2.5-2.7h2.7c1.3 0 2.2.5 2.2 1.6 0 .7-.3 1.2-1 1.5.9.2 1.3.8 1.3 1.5 0 1.2-1 1.9-2.4 1.9h-2.8V40zM74.5 39.9c.8 0 1.8.3 2.5 1l-.6.8c-.5-.4-1.2-.7-1.9-.7-1.3 0-2.3 1-2.3 2.3 0 1.3 1 2.4 2.4 2.4a3 3 0 0 0 2-1l.5 1c-.6.6-1.6 1-2.6 1-2.1 0-3.6-1.4-3.6-3.4s1.5-3.4 3.6-3.4M81.2 40.9c-1 0-2 1-2.2 2.1h3.8c0-1.1-.7-2.1-1.6-2.1zm0-1c1.9 0 2.9 1.4 2.9 3L84 44h-5c0 1.4 1.3 1.7 2.5 1.7a3 3 0 0 0 2-.8l.5 1a4 4 0 0 1-2.6.8c-2 0-3.5-1.4-3.5-3.4s1.4-3.4 3.3-3.4zM95 40v6.6h-1V41h-3.8v5.5h-1.3V40zM99.7 45.7c1 0 2-.9 2-2.4 0-1.4-.8-2.3-2-2.3-1 0-1.8.7-1.8 2.3 0 1.2.6 2.4 1.8 2.4zM97.8 40v1c.4-.8 1.3-1.2 2.2-1.2 1.8 0 3 1.4 3 3.4 0 2.1-1.3 3.4-3 3.4-1 0-1.7-.4-2.1-1v3.5H97V40h.8zM107.6 45.7c1.3 0 2.3-1 2.3-2.4 0-1.3-1-2.3-2.3-2.3-1.2 0-2.2 1-2.2 2.3 0 1.4 1 2.4 2.2 2.4zm0-5.8c2 0 3.6 1.4 3.6 3.4s-1.6 3.4-3.6 3.4-3.5-1.4-3.5-3.4 1.6-3.4 3.5-3.4zM114 40v6h2.1v-6h1.3v6h2.4v-6h1.2v6h1v2h-1v-1h-8v-7zM128 43c0-1.3-1.6-2-2-2-1.2 0-1.8.7-2 2h4zm-2-3c2 0 3 1.4 3 3v1h-5c.3 1.1 1.3 1.9 2 2 1.2-.1 1.9-.4 2-1l1 1c-.7.6-1.7 1-3 1-1.6 0-3-1.5-3-3 0-2.6 1.4-4 3-4zM82 38.4h1V37h-1zM80 38.4h1V37h-1z"/></g><g fill="#FFF"><path d="M79 35.1c-.1.2-.3.1-.5 0l-1.4-2c-1.4-1.7-3.1-2.9-6.3-2.9-6 0-9.7-4.2-9.7-11 0-6.7 3.7-11 9.7-11 6 0 9.7 4.3 9.7 11 0 3.5-1.2 7-3.2 8.2-.4.2-.4.3 0 .4a7 7 0 0 1 3.5 2.6l1.4 1.8v.6L79 35zM70.9 26c3 0 4.8-2.5 4.8-6.7s-1.8-6.6-4.8-6.6c-2.9 0-4.7 2.4-4.7 6.6 0 4.2 1.8 6.7 4.7 6.7zM88.9 29.5c0 .3-.2.4-.4.4h-4.2c-.2 0-.4-.1-.4-.4V9c0-.2.2-.4.4-.4h4.2c.2 0 .4.2.4.4v20.6M117.2 23.4c-.6 2.1-1 4.1-1.4 6.1 0 .3-.2.4-.4.4h-5.6c-.3 0-.4-.1-.5-.4l-1-5-1-3.9-.6-3c0-.5-.5-.5-.5 0l-.6 3-1 4-1 5c-.1.2-.3.3-.5.3h-5.6c-.2 0-.4-.1-.4-.4l-1.4-6L91.9 9c0-.3 0-.5.3-.5h4.3c.2 0 .4.2.4.4L99 17c.5 2 1 4.7 1.1 6.6 0 .4.5.5.6 0 .3-1.9.7-4.5 1.3-6.6l2.3-8.1c0-.2.2-.4.4-.4h3.5c.2 0 .3.2.4.4l2.3 8.1c.5 2 1 4.7 1.3 6.6 0 .5.5.4.5 0 .2-2 .6-4.5 1.2-6.6l2-8.1c.1-.2.3-.4.5-.4h4.2c.3 0 .4.2.4.5l-3.8 14.4M129 29.5c0 .3-.2.4-.5.4h-4.1c-.3 0-.4-.1-.4-.4V9c0-.2.1-.4.4-.4h4.1c.3 0 .4.2.4.4v20.6"/></g><path d="M38 39.5c-.4 0-.9.2-1.1.5-.7.8-.4 2.2.6 3.1.5.4 1.1.6 1.7.6.7 0 1.2-.2 1.6-.7.6-.7.2-1.9-1-2.8-.5-.5-1.1-.7-1.7-.7m5.6-4c-.5-.2-.9-.1-1 .2-.4.5-.2 1.5.4 2.4.6.8 1 1.3 1.4 1.3.2 0 .3 0 .4-.2.2-.2.3-.7.2-1.4-.1-.6-.5-2-1.4-2.4m11 19.8c.6.6-.2 1.3-.8.8-5.8-5.1-10.7-6.5-15.5-6.7-2.6-.2-5.1 0-7.8.3a188 188 0 0 1-5.2.4 26 26 0 0 1-12.8-3.3A24.1 24.1 0 0 1 0 25.2a24.8 24.8 0 0 1 25-25c4.7 0 9 1 13 3.2A24.3 24.3 0 0 1 50.7 25a25.4 25.4 0 0 1-1 6.8c-.4 1.4-1.2 3.4-2.8 6-.2.3-.3 0-.3-.1-.5-3.8-2.2-6.7-5.2-8.5l-.1-.1a13 13 0 0 0-3.9-1.6c-.5-.2-1.6-.1-1.2-.5a24 24 0 0 1 5.6 0v-1.8c0-4.8-1.6-8.6-4.8-11.8a16 16 0 0 0-11.7-4.8c-4.8 0-8.6 1.6-11.7 4.8A16 16 0 0 0 8.9 25c0 4.6 1.5 8.5 4.8 11.7 3.2 3.2 7 4.7 11.6 4.7h.6v-.1c-.3-3.3-.3-6 .3-5a32.5 32.5 0 0 0 3.6 4.6 18 18 0 0 0 10 4.9l1.6.4c4 1 8.3 2.7 13.4 9" fill="#FF8C00"/></g></svg>