<?xml version="1.0" encoding="UTF-8" standalone="no"?><svg xmlns:dc="http://purl.org/dc/elements/1.1/" xmlns:cc="http://creativecommons.org/ns#" xmlns:rdf="http://www.w3.org/1999/02/22-rdf-syntax-ns#" xmlns="http://www.w3.org/2000/svg" viewBox="10 0 82 26" id="svg3336"><metadata id="metadata3352"><rdf:RDF><cc:Work><dc:format>image/svg+xml</dc:format><dc:type rdf:resource="http://purl.org/dc/dcmitype/StillImage"/><dc:title/></cc:Work></rdf:RDF></metadata><defs id="defs3350"><style id="style3422"><![CDATA[
    .fil2 {fill:#36A348}
    .fil0 {fill:#36A348;fill-rule:nonzero}
    .fil1 {fill:#FAA94D;fill-rule:nonzero}
   ]]></style></defs><g id="g3455" transform="translate(1 .2)"><g transform="matrix(.0065 0 0 .0065 10.2 2.3)" id="g3444" clip-rule="evenodd" fill-rule="evenodd" image-rendering="optimizeQuality" shape-rendering="geometricPrecision" text-rendering="geometricPrecision"><g id="Слой_x0020_1"><metadata id="CorelCorpID_0Corel-Layer"/><g id="_2453570079392"><path class="fil0" d="M5003 1411c183 0 281-26 346-51l-41-138c-72 20-163 36-275 36-261 0-468-140-468-461 0-314 198-442 435-441 155 0 229 27 296 47l48-138c-45-20-146-62-348-62-397 0-614 228-614 611 0 361 220 597 621 597zm885-1c250 0 440-145 440-470 0-276-140-384-358-384-128 0-231 40-308 82 8-80 30-187 78-233 57-54 280-94 533-137l-29-156c-284 53-529 111-619 198-104 98-139 391-139 577 0 366 153 523 402 523zm14-140c-167 0-248-127-248-398 0-30 0-73 1-103 82-42 167-78 272-78 163 0 226 111 226 256 0 157-55 323-251 323zm1040 145c138 0 252-27 302-44l-28-138c-56 14-170 37-234 37-177 0-310-40-313-288h597v-62c0-294-105-457-348-457-241 0-424 125-424 492 0 353 175 460 448 460zm-270-554c13-178 102-272 226-272 128 0 188 110 187 272h-413zm810 900h173v-361c42 5 95 13 163 13 238 0 458-125 458-504 0-295-138-444-378-444-93 0-189 53-243 93v-72h-173v1275zm343-488c-90 0-133-11-170-16V681c30-17 122-68 198-68 195 0 247 139 247 322 0 193-94 338-275 338zm1032 137c249 0 439-145 439-470 0-276-140-384-358-384-128 0-231 40-308 82 9-80 30-187 79-233 56-54 279-94 532-137l-28-156c-285 53-529 111-619 198-105 98-140 391-140 577 0 366 153 523 403 523zm13-140c-166 0-248-127-248-398 0-30 0-73 2-103 81-42 166-78 271-78 163 0 226 111 226 256 0 157-55 323-251 323zm852 138c156 0 250-78 300-113 15 80 109 110 194 110 14 0 25 0 37-2l8-135c-43-3-83-15-83-71V721c0-187-120-256-344-256-139 0-255 35-313 59l35 132c53-13 153-42 239-42 147 0 213 27 213 153v102l-199 3c-159 2-362 50-362 275 0 171 102 261 275 261zm42-138c-87 0-147-35-147-138 0-83 72-140 197-143l194-9v210c-35 15-148 80-244 80zm735 125h173v-386h429v386h173V486h-173v385h-429V486h-173v909zm1800 15l29-130c-73-20-145-73-225-165l-175-200 365-429h-198l-355 443 253 309c120 147 220 167 306 172zm-738-15h173V486h-173v909z" id="path3427" fill="#36a348" fill-rule="nonzero"/><path class="fil1" d="M5008 3118c389 0 615-237 615-608 0-353-191-605-584-605-372 0-617 221-617 602 0 364 206 611 586 611zm5-147c-280 0-411-215-411-466 0-258 136-456 422-456 275 0 418 198 418 460 0 261-131 462-429 462zm840 127h173v-386h429v386h173v-909h-173v384h-429v-384h-173v909zm975 28c117-33 198-90 250-180 61-111 91-304 116-621h260v773h173v-909h-584c-10 313-44 564-93 657-40 74-112 110-173 133l51 147zm1285-15c156 0 249-78 299-113 15 80 110 110 195 110 13 0 25 0 36-2l9-135c-44-3-83-15-83-71v-476c0-187-120-257-345-257-138 0-254 35-313 60l35 132c53-14 153-42 240-42 146 0 213 27 213 153v102l-200 3c-158 2-361 50-361 275 0 171 102 261 275 261zm41-138c-86 0-146-35-146-138 0-84 71-140 196-143l195-9v210c-35 15-148 80-245 80zm1140-929c122 0 230-63 293-166l-82-92c-68 79-139 107-211 107-70 0-143-28-211-107l-82 92c63 103 173 166 293 166zm-404 1054h173l387-551 79-127-4 125v553h173v-909h-173l-387 554-79 123 4-121v-556h-173v909zm1095 0h173v-386h429v386h173v-909h-173v384h-429v-384h-173v909z" id="path3429" fill="#faa94d" fill-rule="nonzero"/><path class="fil2" d="M1724 3316c952 0 1723-772 1723-1723 0-284-68-551-189-787l-198 118-2023 1205L3 1485c-2 36-3 71-3 108 0 951 772 1723 1724 1723z" id="path3431" fill="#36a348"/><path class="fil2" d="M1037 1911L3044 715l119-70c-34-53-72-103-112-152L1037 1694 73 1093c-18 62-33 125-45 189l1009 629z" id="path3433" fill="#36a348"/><path class="fil2" d="M1037 1466L2915 347c-48-46-98-88-150-128L1037 1248 224 742c-30 53-58 109-83 166l896 558z" id="path3435" fill="#36a348"/><path class="fil2" d="M1037 1020L2584 99c-64-37-131-70-200-99L1037 803 447 435c-42 46-81 94-118 144l708 441z" id="path3437" fill="#36a348"/></g></g></g></g></svg>