<?xml version="1.0" encoding="UTF-8" standalone="no"?><!--Created with Inkscape (http://www.inkscape.org/)--><svg xmlns:dc="http://purl.org/dc/elements/1.1/" xmlns:cc="http://creativecommons.org/ns#" xmlns:rdf="http://www.w3.org/1999/02/22-rdf-syntax-ns#" xmlns="http://www.w3.org/2000/svg" width="3072" height="1919"><metadata><rdf:RDF><cc:Work><dc:format>image/svg+xml</dc:format><dc:type rdf:resource="http://purl.org/dc/dcmitype/StillImage"/><dc:title/></cc:Work></rdf:RDF></metadata><path d="M18 14.6h3037.5v1890.7H18z" fill="#fff" fill-rule="evenodd" stroke="#0061b2" stroke-width="32"/><path d="M120.6 132.9H2934v397.7H120.6z" fill="#0061b2" fill-rule="evenodd"/><path d="M120.6 1389.7H2934v397.8H120.6z" fill="#fdb827" fill-rule="evenodd"/><path d="M588.3 631.8v.2H472.7v19.6c90.2 2.9 117.2 45.4 127.1 94.8l53.3 527.8h175l374.2-642.4h-175l-225 386-38.9-386zM1295.6 631.4h170l-208.5 643h-170zM2232 644.2l-328.7 630.2h184.5l48-96.2h214l7.3 96.2h170L2479 644.2h-247zm89.4 161.7l20.3 266.5h-153.2z" fill="#0061b2" fill-rule="evenodd"/><path d="M1507.3 795c25.5-102 109.2-171.6 251.7-171.6 133.5 0 232.5 83.4 232.5 83.4l-101 105.8s-74.7-57.7-118.6-57.7c-58.2 0-84.5 21.2-89.8 56-10.8 69.7 237.1 112.2 229.3 274.3-5.3 108.2-117.3 213.3-245.4 213.3-192 0-287-77-287-77l86.6-123.5s86.8 69.5 168.4 65.8c55-2.6 97.4-23.7 94.6-61-6.5-84.5-267.5-123.3-221.3-307.8z" fill="#0061b2"/><path d="M2547.2 644.2c-6 0-11.7 1.5-17.4 4.6-5.6 3-10 7.4-13.2 13a35.8 35.8 0 0 0 0 35.4 35.8 35.8 0 0 0 48.3 13.1 35.9 35.9 0 0 0 13-48.4 36.2 36.2 0 0 0-30.6-17.7zm0 5.9c5 0 9.7 1.2 14.5 3.8a30 30 0 0 1 11.1 40.4 29.6 29.6 0 0 1-51.2 0 29.6 29.6 0 0 1 25.6-44.2z" style="text-align:start" font-size="60" fill="#0061b2" font-family="Arial"/><path d="M2532.6 660.1v41.7h6.1v-17.7h3.7c2.1 0 3.8.5 5 1.4 1.5 1.3 3.7 4.6 6.4 9.8l3.3 6.5h7.6l-4.7-8.2a47.5 47.5 0 0 0-5.6-8.2c-.8-.9-2-1.6-3.3-2.2a11.6 11.6 0 0 0 9.1-17.9 9.6 9.6 0 0 0-4.7-4c-2-.8-5.3-1.2-9.8-1.2h-13.1zm6.1 5.7h7c3 0 5.1.2 6.3.7a5.7 5.7 0 0 1 3.5 5.5c0 1.9-.7 3.4-2 4.6-1.3 1.2-3.7 1.8-7.3 1.8h-7.5v-12.6zM2873.1 1692.4c-6 0-11.7 1.5-17.4 4.6-5.6 3-10 7.4-13.2 13a35.8 35.8 0 0 0 0 35.4 35.8 35.8 0 0 0 48.3 13.1 35.9 35.9 0 0 0 13-48.4 36.2 36.2 0 0 0-30.6-17.7zm0 5.9c5 0 9.8 1.2 14.5 3.8a30 30 0 0 1 11.1 40.4 29.6 29.6 0 0 1-51.2 0 29.6 29.6 0 0 1 25.6-44.2z" style="text-align:start" font-size="60" fill="#0061b2" font-family="Arial"/><path style="text-align:start" d="M2858.5 1708.3v41.7h6.2v-17.7h3.6c2.2 0 3.8.5 5 1.4 1.6 1.3 3.7 4.6 6.4 9.8l3.4 6.5h7.5l-4.7-8.2a47.6 47.6 0 0 0-5.6-8.2c-.8-.9-1.9-1.6-3.2-2.2a11.6 11.6 0 0 0 9.1-17.9 9.6 9.6 0 0 0-4.8-4c-2-.8-5.3-1.2-9.8-1.2h-13.1zm6.2 5.7h7c3 0 5 .2 6.2.7a5.7 5.7 0 0 1 3.5 5.5c0 1.9-.6 3.4-2 4.6-1.2 1.2-3.7 1.7-7.3 1.7h-7.4V1714z" font-size="60" fill="#0061b2" font-family="Arial"/></svg>