<svg width="400" height="116.4" xmlns="http://www.w3.org/2000/svg" display="block"><g fill-rule="evenodd"><path d="M208.7 45.7c0 7.6-.4 13-1.2 16.4a38.7 38.7 0 0 1-2.7 7.3L204 71h-2l-1.8.1v11.8h4.6V79l.1-3.7H227.3v7.5H232V71h-4.2V41.3h-19.1v4.4M223 58.3V71h-14l.4-1a28 28 0 0 0 1-2.3 52 52 0 0 0 2.9-18v-4h9.7v12.6M90 47l-1.2.3c-5 1.5-8.2 8.7-8.2 18.7 0 5.6 1 9.4 3.2 12.4a11.5 11.5 0 0 0 3.4 3.1c3.4 1.7 7.4 1.6 11.4-.4 1.7-.8 1.6-.8 1.2-2.6-.4-1.7-.6-1.8-2.4-1.3-3.6 1-8-.2-9.1-2.5l-.5-.7c-.8-1.4-1.2-3.2-1.4-6.2l-.1-2 .7.1 7 .2h6.4l-.1-3.8c-.2-5.8-1.3-10.2-3-12.1l-.5-.5c0-.2-1.5-1.5-2.3-1.9-1-.6-3.8-1-4.6-.8m46 .2c-.9.2-2 .7-2.7 1.1a18.3 18.3 0 0 0-3 3.1c-.5 0-2.5 4.8-3 7.1-2 9-.3 18.2 4 21.7l.6.6.3.1.2.2c0 .8 4.8 1.8 7 1.5 3.9-.5 6.4-2 6-3.5-.6-2.5-.5-2.4-2.3-1.9-1.4.4-4.7.4-5.7 0-2.5-1.1-3.7-3-4.7-7.1-1-4.2.2-14.6 1.9-16.3l.5-.8c1.4-2 3.4-2 5.7-.1 1.4 1 1.8 1 2.5-.4l1-1.7c.8-1.2.7-1.7-.6-2.3-3-1.5-5.6-1.9-7.7-1.3M32.2 64.8v17H37.5V65.5H45.2V81.8h2.5c2 0 2.6 0 2.7-.2l.1-17V47.8H45.2v13.4H37.5V47.8H32.2v17M60.8 48l-.1 5.1c0 7.7-.7 13-2.3 18.4-1.3 4.3-2.1 5.6-3.4 5.7l-1 .1v10.9h2.2c3 0 2.8.2 2.8-3.5v-3h14.2v6.5h4.3l.5-.1V77.3h-.9c-.5 0-1 0-1.2-.2l-.4-.3v-29h-7.3c-6.5 0-7.3 0-7.4.3m45 16.7v17h5.1V73l.1-8.7.8 1.7 1.5 3 4.8 10c1.4 2.8 1.3 2.7 4.7 2.7 3.5 0 3.4.4 1.2-3.7a679.6 679.6 0 0 1-6.4-12.3c-1.6-3-1.6-2.3 0-5.3a221.7 221.7 0 0 0 5-9.3c.3-.3 1.7-3 1.7-3.2 0-.1-.8-.2-2.8-.2-3.3 0-3-.2-4.6 3.2l-3.7 7.7c-2.4 5.2-2.2 5.5-2.2-3.3v-7.6H105.7v17m-13.6-13c.4.2.7.5.7.7 0 0 0 .2.2.2.6 0 1.5 3.8 1.8 7.6v1.4h-8.3v-.5l.3-1.6c.5-6 2.8-9.5 5.3-7.8m151.4.5c-10 1.5-11.6 18.5-2.2 22.6 4 1.8 10.3 1 13.2-1.7 1-1 1-1-.3-2.1l-1.3-1.2c-.3-.3-.4-.3-1 .2-4.8 4-11.3 1.7-12-4.3l-.1-1h16v-1.6c0-2.5-1.2-6.7-2.2-7.5-.2 0-.3-.2-.3-.3l-.7-.8c-2.2-2.2-5.2-3-9-2.3M70 64.8v12.5h-4.7a42 42 0 0 1-4.6 0l1-2.2c2.5-5 3.6-10.6 4.2-19.5l.1-3.4h4v12.5m191.7-.7v11.3H266V65h10.5v10.3h4.2V52.7h-4.2v8.5H266v-8.5H261.7V64m26.3 0v11.3h4.7c6.8 0 8.5-.3 10.6-2 2.1-1.6 2.9-6 1.5-9-.4-1-2-2.6-2.4-2.6l-.2-.2-.5-.3-.7-.2c-.5-.4-3.4-.8-6-.8h-2.7v-7.5H288V64m22.7 0v11.3H315v-19h10.5v-3.6h-14.8V64m19.5 0v11.3h4.1v-1c0-1 0-1.2.7-2a62.2 62.2 0 0 1 3.9-4.7L340 66l1-1v-.3l.2-.2 1-1a32.1 32.1 0 0 1 2-2.4l.5-.8v15h4.4V52.7h-4.4v1c0 1.1-.8 2.7-1.5 3l-.1.2-.2.3-2.5 3a25.6 25.6 0 0 1-2.7 3.1l-.3.5-1.7 2-1.4 1.7V52.7h-4.2V64m-82.9-8a6 6 0 0 1 3.6 4.5l.1.7h-5.5c-4.3 0-5.5 0-5.5-.2 0-.3.6-1.9.9-2.4.4-.7 2.2-2.4 2.8-2.5l1-.3c.7-.2 1.6-.1 2.6.2m51.2 8.3c1.2.4 2 1.4 2.3 2.6.1.9 0 2.5-.3 2.6-.1 0-.2.1-.2.3 0 .3-1 1-2 1.4-.5.2-1.2.3-3.3.3h-2.7V64h2.6c2 0 2.9 0 3.6.3"/><path d="M13.8 31.2l-.9.3A13 13 0 0 0 5.6 37l-1.4 3C3.3 42.4 3 44.6 3 47.9c0 3 0 3.5.8 5.9a14 14 0 0 0 6.7 7.9c.9.4 1 .7.6 1l-.3.4c0 .1-.4 1-1 1.9A31.3 31.3 0 0 0 8 68.2a144.6 144.6 0 0 0-4.2 7.7L2 79.1c-1.2 2-1.2 2-.7 2.5.4.4 5.8.4 6.1 0l1.7-3.2a1058.6 1058.6 0 0 1 6-11.7l1.8-3.5h3.3v18.6h5.2V31H20a30 30 0 0 0-6 .1M20.1 47v11.5h-1.7c-4.3 0-7-1.5-8.6-5.2l-.6-1.4a26 26 0 0 1 .3-10.5c1.8-4.4 3.9-5.9 8.3-5.9h2.3V47" fill="red"/><path d="M169.3 58.3V109h200.4l.4-.8a208.6 208.6 0 0 1 6.7-11.6 145.2 145.2 0 0 0 5.4-9.3l.3-.6a148.7 148.7 0 0 0 5.7-9.8l.7-1.3a14.6 14.6 0 0 0 1.2-2.1 399 399 0 0 0 8.1-14l.5-.9c.3-.1-.2-1-2.5-5a124 124 0 0 1-3.5-6 24.5 24.5 0 0 0-2-3.4 75 75 0 0 0-3.5-6.1 59 59 0 0 1-2.6-4.4l-.7-1.3a39.7 39.7 0 0 1-1.7-2.9 63 63 0 0 0-2-3.6 281 281 0 0 0-7.9-13.6 25.1 25.1 0 0 1-1.4-2.6 6 6 0 0 1-.6-1l-.3-.4s-.2-.1-.2-.3c-.1-.3-.2-.3-100.3-.3H169.3v50.6M363.8 17l.7 1.3.5 1 .3.4s.3.3.4.7l.5.8.3.5a432.7 432.7 0 0 0 9 15.7 83.4 83.4 0 0 1 2.9 4.8 589.4 589.4 0 0 1 9 16.6l-.3.5-.4.8-.5.7a60.4 60.4 0 0 1-3.3 5.8 23.2 23.2 0 0 0-1.4 2.4l-.3.4-.7 1.3a22.5 22.5 0 0 0-1 1.8 135.6 135.6 0 0 0-5.2 8.8c0 .3-.3.7-.5 1l-.4.7a59.8 59.8 0 0 1-3 5.3l-.8 1.3-.8 1.4-.1.2-.3.3-.3.7-.8 1.2-.6 1.3a90.8 90.8 0 0 0-2.7 4.6l-.6.9H179.2V16.3h184.2l.4.7" fill="#fc0"/></g></svg>