<svg height="480pt" viewBox="0 0 479 480" width="480pt" xmlns="http://www.w3.org/2000/svg"><path d="m328.5 8h-176c-17.671875 0-32 14.328125-32 32v16h240v-16c0-17.671875-14.328125-32-32-32zm0 0" fill="#126099"/><path d="m120.5 440c0 17.671875 14.328125 32 32 32h176c17.671875 0 32-14.328125 32-32v-32h-240zm0 0" fill="#126099"/><path d="m120.5 56h240v352h-240zm0 0" fill="#4398d1"/><path d="m248.5 220c.085938-32.171875-14.210938-62.695312-38.984375-83.222656-24.769531-20.527344-57.421875-28.910156-89.015625-22.847656v212.140624c6.59375 1.261719 13.289062 1.90625 20 1.929688 1.351562 0 2.664062-.152344 4-.199219v16.199219h24v-19.800781c47.164062-12.640625 79.972656-55.371094 80-104.199219zm0 0" fill="#3e8cc7"/><path d="m120.5 392v16h240v-256zm0 0" fill="#3e8cc7"/><path d="m232.5 432h16v16h-16zm0 0" fill="#3181bd"/><path d="m248.5 208c0 53.019531-42.980469 96-96 96s-96-42.980469-96-96 42.980469-96 96-96c25.488281-.085938 49.957031 10 67.980469 28.019531 18.019531 18.023438 28.105469 42.492188 28.019531 67.980469zm0 0" fill="#126099"/><path d="m184.5 192c0 17.671875-14.328125 32-32 32s-32-14.328125-32-32 14.328125-32 32-32 32 14.328125 32 32zm0 0" fill="#fec9a3"/><path d="m312.5 288 131.0625-115.640625c3.183594-2.808594 7.277344-4.355469 11.523438-4.359375 9.617187 0 17.414062 7.796875 17.414062 17.414062-.003906 4.246094-1.550781 8.339844-4.359375 11.523438l-115.640625 131.0625zm0 0" fill="#e3584b"/><path d="m312.5 288c-26.507812 0-48 21.492188-48 48v14.113281c0 10.960938-6.195312 20.984375-16 25.886719h56c26.507812 0 48-21.492188 48-48zm0 0" fill="#87ced9"/><path d="m8.5 368h176v64h-176zm0 0" fill="#87ced9"/><path d="m32.5 392h40v16h-40zm0 0" fill="#5eb3d1"/><path d="m88.5 392h72v16h-72zm0 0" fill="#5eb3d1"/><path d="m8.5 40h80v64h-80zm0 0" fill="#87ced9"/><path d="m32.5 64h32v16h-32zm0 0" fill="#5eb3d1"/><path d="m152.5 224c-26.507812 0-48 21.492188-48 48v19.113281c29.691406 17.183594 66.308594 17.183594 96 0v-19.113281c0-26.507812-21.492188-48-48-48zm0 0" fill="#e3584b"/><path d="m280.5 200h-24.40625c-3.988281-51.050781-44.542969-91.605469-95.59375-95.59375v-24.40625h-16v24.40625c-51.050781 3.988281-91.605469 44.542969-95.59375 95.59375h-24.40625v16h24.425781c3.773438 51.148438 44.425781 91.828125 95.574219 95.632812v24.367188h16v-24.367188c51.148438-3.804687 91.800781-44.484374 95.574219-95.632812h24.425781zm-69.335938 73.601562c-14.070312 12.617188-31.839843 20.34375-50.664062 22.03125v-15.632812h-16v15.632812c-42.300781-3.792968-75.8125-37.332031-79.574219-79.632812h15.574219v-16h-15.59375c3.910156-42.234375 37.359375-75.683594 79.59375-79.59375v15.59375h16v-15.59375c42.234375 3.910156 75.683594 37.359375 79.59375 79.59375h-15.59375v16h15.574219c-2 22.179688-12.332031 42.773438-28.910157 57.640625zm0 0" fill="#e3584b"/><path d="m264.5 56h96v96h-96zm0 0" fill="#3e8cc7"/><path d="m280.5 40h176v96h-176zm0 0" fill="#87ced9"/><g fill="#5eb3d1"><path d="m304.5 64h32v16h-32zm0 0"/><path d="m352.5 64h80v16h-80zm0 0"/><path d="m304.5 96h128v16h-128zm0 0"/></g><path d="m368.5 368h-16v32h-144v16h144v24c0 13.253906-10.746094 24-24 24h-176c-8.574219-.011719-16.496094-4.582031-20.800781-12l-13.855469 8c7.171875 12.355469 20.371094 19.972656 34.65625 20h176c22.082031-.027344 39.972656-17.917969 40-40zm0 0"/><path d="m232.5 432h16v16h-16zm0 0"/><path d="m280.5 216v-16h-24.40625c-3.988281-51.050781-44.542969-91.605469-95.59375-95.59375v-24.40625h-16v24.40625c-5.390625.414062-10.738281 1.25-16 2.496094v-42.902344h128v-16h-128v-8c0-13.253906 10.746094-24 24-24h176c5.84375 0 11.488281 2.132812 15.871094 6l10.585937-12c-7.304687-6.449219-16.714843-10.00390625-26.457031-10h-176c-22.082031.0273438-39.972656 17.917969-40 40v72c-36.023438 15.089844-60.574219 49.0625-63.59375 88h-24.40625v16h24.425781c3.773438 51.148438 44.425781 91.828125 95.574219 95.632812v24.367188h16v-24.367188c51.148438-3.804687 91.800781-44.484374 95.574219-95.632812zm-136 64v15.632812c-11.160156-1.003906-22.019531-4.140624-32-9.234374v-14.398438c0-22.089844 17.910156-40 40-40s40 17.910156 40 40v14.398438c-9.976562 5.101562-20.839844 8.242187-32 9.257812v-15.65625zm-16-88c0-13.253906 10.746094-24 24-24s24 10.746094 24 24-10.746094 24-24 24-24-10.746094-24-24zm82.664062 81.601562c-.863281.796876-1.785156 1.4375-2.664062 2.175782v-3.777344c-.019531-20.898438-11.675781-40.046875-30.230469-49.664062 12.851563-10.824219 17.566407-28.527344 11.804688-44.308594-5.761719-15.785156-20.773438-26.285156-37.574219-26.285156s-31.8125 10.5-37.574219 26.285156c-5.761719 15.78125-1.046875 33.484375 11.804688 44.308594-18.554688 9.617187-30.210938 28.765624-30.230469 49.664062v3.816406c-.886719-.726562-1.808594-1.410156-2.664062-2.175781-16.578126-14.867187-26.910157-35.460937-28.910157-57.640625h15.574219v-16h-15.59375c3.910156-42.234375 37.359375-75.683594 79.59375-79.59375v15.59375h16v-15.59375c42.234375 3.910156 75.683594 37.359375 79.59375 79.59375h-15.59375v16h15.574219c-2 22.179688-12.332031 42.773438-28.910157 57.640625zm0 0"/><path d="m456.5 144c4.417969 0 8-3.582031 8-8v-96c0-4.417969-3.582031-8-8-8h-176c-4.417969 0-8 3.582031-8 8v96c0 4.417969 3.582031 8 8 8zm-168-96h160v80h-160zm0 0"/><path d="m304.5 64h32v16h-32zm0 0"/><path d="m352.5 64h80v16h-80zm0 0"/><path d="m304.5 96h128v16h-128zm0 0"/><path d="m455.085938 160c-6.195313.011719-12.171876 2.285156-16.800782 6.398438l-69.785156 61.523437v-67.921875h-16v80h2.3125l-45.511719 40.160156c-29.609375 1.695313-52.765625 26.179688-52.800781 55.839844v14.113281c.03125 7.9375-4.457031 15.207031-11.574219 18.726563-3.324219 1.65625-5.070312 5.382812-4.21875 8.996094.851563 3.613281 4.078125 6.167968 7.792969 6.164062h56c29.660156-.035156 54.144531-23.191406 55.839844-52.800781l113.808594-128.976563c6.605468-7.492187 8.210937-18.160156 4.097656-27.265625-4.109375-9.105469-13.171875-14.957031-23.160156-14.957031zm-150.585938 208h-36.585938c3.019532-5.476562 4.597657-11.632812 4.585938-17.886719v-14.113281c.027344-20.839844 16.027344-38.179688 36.800781-39.871094l35.070313 35.070313c-1.6875 20.773437-19.03125 36.777343-39.871094 36.800781zm157.648438-176.359375-110.007813 124.679687-27.960937-27.953124 124.679687-110.015626c3.730469-3.273437 9.359375-3.089843 12.871094.417969 3.507812 3.511719 3.691406 9.140625.417969 12.871094zm0 0"/><path d="m8.5 440h176c4.417969 0 8-3.582031 8-8v-64c0-4.417969-3.582031-8-8-8h-56v-40h-16v40h-104c-4.417969 0-8 3.582031-8 8v64c0 4.417969 3.582031 8 8 8zm8-64h160v48h-160zm0 0"/><path d="m32.5 392h40v16h-40zm0 0"/><path d="m88.5 392h72v16h-72zm0 0"/><path d="m8.5 112h80c4.417969 0 8-3.582031 8-8v-64c0-4.417969-3.582031-8-8-8h-80c-4.417969 0-8 3.582031-8 8v64c0 4.417969 3.582031 8 8 8zm8-64h64v48h-64zm0 0"/><path d="m32.5 64h32v16h-32zm0 0"/></svg>