<?xml version="1.0" encoding="utf-8"?>
<!-- Generator: Adobe Illustrator 20.1.0, SVG Export Plug-In . SVG Version: 6.00 Build 0)  -->
<svg version="1.1" xmlns="http://www.w3.org/2000/svg" xmlns:xlink="http://www.w3.org/1999/xlink" x="0px" y="0px"
	 viewBox="0 0 353.6 353.6" style="enable-background:new 0 0 353.6 353.6;" xml:space="preserve">
<style type="text/css">
	.st0{fill:#E0B94F;}
	.st1{fill:#B9964D;}
	.st2{fill:#FFFFFF;}
	.st3{fill:#B8964C;}
	.st4{display:none;opacity:0.67;}
	.st5{fill:#FCFBEC;}
	.st6{display:none;}
</style>
<g id="Layer_2">
	<path class="st0" d="M353.6,176.8c0,3-0.1,6-0.2,8.9c-0.2,3.5-0.4,6.9-0.8,10.3c-9.6,88.6-84.6,157.6-175.8,157.6
		c-3.6,0-7.2-0.1-10.8-0.3c-5.2-0.3-10.3-0.8-15.3-1.6C65.4,339,0,265.6,0,176.8C0,79.2,79.2,0,176.8,0S353.6,79.2,353.6,176.8z"/>
</g>
<g id="Layer_8">
	<path class="st1" d="M353.4,185.7c-0.2,3.5-0.4,6.9-0.8,10.3c-9.6,88.6-84.6,157.6-175.8,157.6c-3.6,0-7.2-0.1-10.8-0.3
		c-5.2-0.3-10.3-0.8-15.3-1.6l-79.3-78.9l15-16.7v-9.6l17-10.4l-0.2-79.1l-21.4-14L72,131.8l0.1-16.4l105.2-53.4l104,52.6
		L353.4,185.7z"/>
</g>
<g id="Layer_4">
	<rect x="71.4" y="256.9" class="st2" width="210.9" height="17.6"/>
</g>
<g id="Layer_6">
	<g>
		<g>
			<path class="st2" d="M115.4,225.3l1.6,0.9c2.9,1.6,5,4.6,5.6,8l0.2,1.2h8.3v12H81.2v-12h8.3l0.2-1.2c0.6-3.5,2.7-6.5,5.6-8
				l1.6-0.9v-60.6l-1.6-0.9c-2.9-1.6-5-4.6-5.6-8l-0.2-1.2h-8.3v-12h49.9v12h-8.3l-0.2,1.2c-0.6,3.5-2.7,6.5-5.6,8l-1.6,0.9V225.3z"
				/>
		</g>
	</g>
	<g>
		<g>
			<path class="st2" d="M186.1,225.1l1.6,0.9c2.9,1.6,5,4.6,5.6,8l0.2,1.2h8.3v12h-49.9v-12h8.3l0.2-1.2c0.6-3.5,2.7-6.5,5.6-8
				l1.6-0.9v-60.6l-1.6-0.9c-2.9-1.6-5-4.6-5.6-8l-0.2-1.2h-8.3v-12h49.9v12h-8.3l-0.2,1.2c-0.6,3.5-2.7,6.5-5.6,8l-1.6,0.9V225.1z"
				/>
		</g>
	</g>
	<g>
		<g>
			<path class="st2" d="M255.3,225.2l1.6,0.9c2.9,1.6,5,4.6,5.6,8l0.2,1.2h8.3v12h-49.9v-12h8.3l0.2-1.2c0.6-3.5,2.7-6.5,5.6-8
				l1.6-0.9v-60.6l-1.6-0.9c-2.9-1.6-5-4.6-5.6-8l-0.2-1.2h-8.3v-12H271v12h-8.3l-0.2,1.2c-0.6,3.5-2.7,6.5-5.6,8l-1.6,0.9V225.2z"
				/>
		</g>
	</g>
	<polyline class="st2" points="70.7,113.7 176.3,61.6 280.5,114 280.5,131 71,131 	"/>
	<polyline class="st3" points="93.8,113.7 258.1,113.7 176.5,72.4 	"/>
	<g id="tDl2Xy_1_" class="st4">
		
			<image style="display:inline;overflow:visible;" width="786" height="746" id="tDl2Xy_2_" xlink:href="D08C330F35D5A48E.png"  transform="matrix(0.5 0 0 0.5 -20.9824 -6.6233)">
		</image>
	</g>
	<path class="st5" d="M176.8,89.4L176.8,89.4c4.2,0,7.6,3.4,7.6,7.6v0c0,4.2-3.4,7.6-7.6,7.6h0c-4.2,0-7.6-3.4-7.6-7.6v0
		C169.2,92.8,172.7,89.4,176.8,89.4z"/>
</g>
<g id="Layer_5" class="st6">
</g>
</svg>
