<?xml version="1.0" encoding="utf-8"?>
<!-- Generator: Adobe Illustrator 20.1.0, SVG Export Plug-In . SVG Version: 6.00 Build 0)  -->
<svg version="1.1" xmlns="http://www.w3.org/2000/svg" xmlns:xlink="http://www.w3.org/1999/xlink" x="0px" y="0px"
	 viewBox="0 0 353.6 353.6" style="enable-background:new 0 0 353.6 353.6;" xml:space="preserve">
<style type="text/css">
	.st0{fill:#6BAE87;}
	.st1{fill:#53896B;}
	.st2{fill:#53896B;stroke:#FFFFFF;stroke-width:13;stroke-miterlimit:10;}
	.st3{fill:#53896B;stroke:#FFFFFF;stroke-width:8;stroke-miterlimit:10;}
	.st4{fill:#FFFFFF;}
	.st5{fill:#FFFFFF;stroke:#53896B;stroke-width:7;stroke-miterlimit:10;}
</style>
<g id="Layer_2">
	<path class="st0" d="M353.6,176.8c0,6.5-0.3,12.9-1,19.2c-9.6,88.6-84.6,157.6-175.8,157.6c-3.6,0-7.2-0.1-10.8-0.3
		C73.4,347.7,0,270.8,0,176.8C0,79.2,79.2,0,176.8,0S353.6,79.2,353.6,176.8z"/>
</g>
<g id="Layer_8">
	<path class="st1" d="M352.6,196c-9.6,88.6-84.6,157.6-175.8,157.6c-3.6,0-7.2-0.1-10.8-0.3l-90.5-93.5l2.6-148.6l70.2,0.1
		l92.8-26.9L352.6,196z"/>
</g>
<g id="Layer_7">
	<path class="st2" d="M190.9,236.3H85c-5.7,0-10.4-4.7-10.4-10.4V120c0-5.7,4.7-10.4,10.4-10.4h105.9c5.7,0,10.4,4.7,10.4,10.4
		v105.9C201.2,231.6,196.6,236.3,190.9,236.3z"/>
</g>
<g id="Layer_5">
	<path class="st3" d="M257.9,186.1l-122.7,33.1c-6.4,1.7-13-2.1-14.7-8.5l-20.8-77c-1.7-6.4,2.1-13,8.5-14.7l122.7-33.1
		c6.4-1.7,13,2.1,14.7,8.5l20.8,77C268,177.7,264.2,184.3,257.9,186.1z"/>
</g>
<g id="Layer_4">
	<path class="st4" d="M254.8,267.2H85.1c-9.4,0-17-7.7-17-17V140.6c0-9.4,7.7-17,17-17h169.7c9.4,0,17,7.7,17,17v109.6
		C271.8,259.5,264.2,267.2,254.8,267.2z"/>
</g>
<g id="Layer_6">
	<path class="st5" d="M234.4,174.5h39.7c6.2,0,11.3,5.1,11.3,11.3v19.2c0,6.2-5.1,11.3-11.3,11.3h-39.7c-10.6,0-19.3-8.7-19.3-19.3
		v-3.3C215.1,183.2,223.7,174.5,234.4,174.5z"/>
	<circle class="st1" cx="236.8" cy="195.2" r="7.8"/>
</g>
</svg>
