<?xml version="1.0" encoding="utf-8"?>
<!-- Generator: Adobe Illustrator 20.1.0, SVG Export Plug-In . SVG Version: 6.00 Build 0)  -->
<svg version="1.1" xmlns="http://www.w3.org/2000/svg" xmlns:xlink="http://www.w3.org/1999/xlink" x="0px" y="0px"
	 viewBox="0 0 353.6 353.6" style="enable-background:new 0 0 353.6 353.6;" xml:space="preserve">
<style type="text/css">
	.st0{fill:#69ACE1;}
	.st1{fill:#538BB3;}
	.st2{fill:#FFFFFF;}
</style>
<g id="Layer_2">
	<path class="st0" d="M353.7,176.7c0,3-0.1,6-0.2,8.9c-0.2,3.5-0.4,6.9-0.8,10.3c-9.6,88.6-84.6,157.6-175.8,157.6
		c-3.6,0-7.2-0.1-10.8-0.3c-5.2-0.3-10.3-0.8-15.3-1.6C65.5,338.9,0.1,265.4,0.1,176.7C0.1,79,79.2-0.1,176.9-0.1
		S353.7,79,353.7,176.7z"/>
</g>
<g id="Layer_7">
	<path class="st1" d="M353.6,180.9c0,3.6-0.7,11.7-1.1,15.1c-9.6,88.6-84.6,157.6-175.8,157.6c-3.6,0-7.2-0.1-10.8-0.3
		c-5.2-0.3-10.3-0.8-15.3-1.6L78.8,225.8c0,0-4.8-36.3-11-46.5c-5.7-9.3-1.9-24.2,0-32c1.3-5.6,1.7-8.5,3.6-13.9
		c2.6-7.7,14.8-27,14.8-27l56.6,20l90.8-51l76.4,70.2L353.6,180.9z"/>
	<path class="st2" d="M289,172.3c0,61.9-50.2,112.1-112.1,112.1c-61.9,0-112.1-50.2-112.1-112.1c0-2.5,0.1-5,0.3-7.5l67.9,39.1
		l143.8-82.7C284.6,136.5,289,153.9,289,172.3 M132.9,175.6l-63.2-36.3c-1.2,4-2.3,8.1-3,12.4l66.2,38.1l138.2-79.6
		c-3.2-3.3-6.1-5.5-9.2-8.6L132.9,175.6z M252.2,92.8c-3.4-3.4-6.3-6.1-9.1-8.6l-110.3,63.2l-53.4-30.7c-2,3.5-3.8,7.2-5.5,11
		l58.9,33.9L252.2,92.8z M132.9,133.3l100.6-57.8c-3.9-2.6-7.7-5.1-11.7-7.4l-88.9,51.1l-39-22.4c-2.8,3-5.4,6.3-7.8,9.6
		L132.9,133.3z"/>
</g>
<g id="Layer_8">
</g>
<g id="Layer_5">
</g>
</svg>
