<?xml version="1.0" encoding="utf-8"?>
<!-- Generator: Adobe Illustrator 20.1.0, SVG Export Plug-In . SVG Version: 6.00 Build 0)  -->
<svg version="1.1" xmlns="http://www.w3.org/2000/svg" xmlns:xlink="http://www.w3.org/1999/xlink" x="0px" y="0px"
	 viewBox="0 0 353.6 353.6" style="enable-background:new 0 0 353.6 353.6;" xml:space="preserve">
<style type="text/css">
	.st0{fill:#69ABDE;}
	.st1{fill:#538BB3;}
	.st2{fill:#FFFFFF;}
</style>
<g id="Layer_3">
	<path class="st0" d="M353.7,175.7v1c0,3-0.1,6-0.2,8.9c-0.2,3.5-0.4,6.9-0.8,10.3c-0.3,3.2-0.8,6.4-1.3,9.6
		C339.8,275.7,287,332,218.5,348.5c-10.2,2.5-20.8,4.1-31.7,4.7c-3.3,0.2-6.6,0.3-10,0.3c-3.6,0-7.2-0.1-10.8-0.3
		c-5.2-0.3-10.3-0.9-15.3-1.6C65.5,338.9,0.1,265.4,0.1,176.7C0.1,79,79.2-0.1,176.9-0.1C274.2-0.1,353.1,78.5,353.7,175.7z"/>
</g>
<g id="Layer_6">
	<path class="st1" d="M351.3,205.4C339.8,275.7,287,332,218.5,348.5L89.4,214.8l-0.5-5.6L87,156.2l26.2-53.4l59.1-24.3l82,29.5
		L351.3,205.4z"/>
</g>
<g id="Layer_4">
	<g>
		<g>
			<path class="st2" d="M237.3,238.8h4.3c6.3,0,11.5-5.2,11.5-11.5v-46.7c0-6.3-5.2-11.5-11.5-11.5h-4.3c-6.3,0-11.5,5.2-11.5,11.5
				v46.7C225.7,233.6,230.9,238.8,237.3,238.8z"/>
			<path class="st2" d="M254.7,219.7h3.1c6.6,0,12-5.4,12-12v-11.4c0-6.6-5.4-12-12-12h-3.1c-6.6,0-12,5.4-12,12v11.4
				C242.7,214.3,248.1,219.7,254.7,219.7z"/>
			<path class="st2" d="M266,195.3c0.8,0.6,3.8,1,3.8,1s2-31,1.1-40.7c-0.4-4.3-1.8-11.5-3.4-15c-2.7-5.9-5.3-11.7-5.3-11.7
				s2.1-3.5,0.7-7.5c-0.6-1.6-1.9-4.7-2.9-6.1c-2.7-4-17.4-20.7-31-29c-23.7-14.3-51.5-13.8-51.5-13.8l0,15.6
				c0,0,19.3-1.4,43.5,15.1c18.7,12.7,19.5,18.8,25.7,27.6c1.5,2.1,5.7,2.3,5.7,2.3s7,12.6,8.1,23.5c0.7,7-0.3,28.3-0.3,28.3
				S263.6,193.5,266,195.3z"/>
		</g>
	</g>
	<g>
		<g>
			<path class="st2" d="M117.5,238.8h-4.3c-6.3,0-11.5-5.2-11.5-11.5v-46.7c0-6.3,5.2-11.5,11.5-11.5h4.3c6.3,0,11.5,5.2,11.5,11.5
				v46.7C129.1,233.6,123.9,238.8,117.5,238.8z"/>
			<path class="st2" d="M100.1,219.7H97c-6.6,0-12-5.4-12-12v-11.4c0-6.6,5.4-12,12-12h3.1c6.6,0,12,5.4,12,12v11.4
				C112.1,214.3,106.7,219.7,100.1,219.7z"/>
			<path class="st2" d="M88.8,195.3c-0.8,0.6-3.8,1-3.8,1s-2-31-1.1-40.7c0.4-4.3,1.8-11.5,3.4-15c2.7-5.9,5.3-11.7,5.3-11.7
				s-2.1-3.5-0.7-7.5c0.6-1.6,1.9-4.7,2.9-6.1c2.7-4,17.4-20.7,31-29c23.7-14.3,51.5-13.8,51.5-13.8l0,15.6c0,0-19.3-1.4-43.5,15.1
				c-18.7,12.7-19.5,18.8-25.7,27.6c-1.5,2.1-5.7,2.3-5.7,2.3s-7,12.6-8.1,23.5c-0.7,7,0.3,28.3,0.3,28.3S91.3,193.5,88.8,195.3z"/>
		</g>
	</g>
</g>
<g id="Layer_5">
	<path class="st2" d="M208.7,283.4h-28.3c-4.8,0-8.8-3.9-8.8-8.8v-1.1c0-4.8,3.9-8.8,8.8-8.8h28.3c4.8,0,8.8,3.9,8.8,8.8v1.1
		C217.5,279.4,213.5,283.4,208.7,283.4z"/>
	<path class="st2" d="M213.8,269.1c0,0,8.3-0.3,15.2-6.1c6.5-5.5,11.9-15.8,11.9-15.8s3-0.1,4.2-0.3c2.6-0.4,5.1-1.5,5.1-1.5
		s-5.3,15.1-14.9,22.7c-9,7.1-20.8,10.3-20.8,10.3L213.8,269.1z"/>
</g>
</svg>
