<?xml version="1.0" encoding="utf-8"?>
<!-- Generator: Adobe Illustrator 20.1.0, SVG Export Plug-In . SVG Version: 6.00 Build 0)  -->
<svg version="1.1" xmlns="http://www.w3.org/2000/svg" xmlns:xlink="http://www.w3.org/1999/xlink" x="0px" y="0px"
	 viewBox="0 0 353.6 353.6" style="enable-background:new 0 0 353.6 353.6;" xml:space="preserve">
<style type="text/css">
	.st0{fill:#6BB48A;}
	.st1{fill:#549171;}
	.st2{fill:#FFFFFF;}
</style>
<g id="Layer_2">
	<path class="st0" d="M353.7,175.7v1c0,3-0.1,6-0.2,8.9c-0.2,3.5-0.4,6.9-0.8,10.3c-9.2,85.3-79.2,152.5-165.8,157.3
		c-3.3,0.2-6.6,0.3-10,0.3c-3.6,0-7.2-0.1-10.8-0.3c-5.2-0.3-10.3-0.9-15.3-1.6C65.5,338.9,0.1,265.4,0.1,176.7
		C0.1,79,79.2-0.1,176.9-0.1C274.2-0.1,353.1,78.5,353.7,175.7z"/>
</g>
<g id="Layer_7">
	<path class="st1" d="M353.7,175.7v1c0,3-0.1,6-0.2,8.9c-0.2,3.5-0.4,6.9-0.8,10.3c-9.2,85.3-79.2,152.5-165.8,157.3L102,270.9
		L264.2,87.6L353.7,175.7z"/>
</g>
<g id="Layer_8">
</g>
<g id="Layer_5">
	<path class="st2" d="M92.8,115c0,0-1.3,1.2-1.6,1.7c-0.4,1-0.6,2.6-0.6,2.6v139.3c0,0,3.9,8.6,11.3,12.3c6.6,3.4,15.8,1.1,15.8,1.1
		s1.8,6,8.5,9.1c4.1,1.9,13.1,1.5,13.1,1.5s4.7,6.3,11,7.4c6.1,1.1,16.2,0.5,16.2,0.5l97.6-52.7V87.6c0,0-12.3,1.1-15.9-0.6
		c-2.8-1.3-6.3-7-9-8.3c-3.7-1.8-15.4-2-15.4-2s-4.1-6.1-6.3-7.4c-3.8-2.1-14.7-1.4-14.7-1.4s-2.9-4.4-5.2-6.1c-1-0.8-6-2.2-7.1-1.6
		C166.1,73.9,92.8,115,92.8,115z"/>
	<path class="st1" d="M190.5,69.6c0,0,1.9,3.5,3,4.2c1.5,0.9,7.3,2.2,7.3,2.2l-83.1,46.9c0,0-5.6,1.5-9,0c-4.1-1.8-4.3-5.5-4.3-5.5
		L190.5,69.6z"/>
	<path class="st1" d="M214.6,78.2c0,0,1.9,3.5,3,4.2c1.5,0.9,7.3,2.2,7.3,2.2l-83.1,46.9c0,0-5.6,1.5-9,0c-4.1-1.8-4.3-5.5-4.3-5.5
		L214.6,78.2z"/>
	<path class="st1" d="M237.6,87c0,0,1.9,3.5,3,4.2c1.5,0.9,7.3,2.2,7.3,2.2l-83.1,46.9c0,0-5.6,1.5-9,0c-4.1-1.8-4.3-5.5-4.3-5.5
		L237.6,87z"/>
	<path class="st1" d="M123.1,134.7c0,0,2.5,3.8,5.8,4.8c2.9,0.9,7.5,0.2,7.5,0.2l-0.1,132.1c0,0-3.3,0.6-7.5-0.3
		c-1.9-0.4-5.5-3.6-5.5-5.5"/>
	<polyline class="st1" points="185.8,152.7 241.3,121.7 241.3,145.7 185.6,177.7 	"/>
	<polygon class="st1" points="185.6,193.6 241.3,161.6 241.3,171.1 185.5,202.4 	"/>
	<polyline class="st1" points="185.6,211.3 185.6,220.9 229.3,196.6 229.6,186.6 	"/>
</g>
</svg>
