<?xml version="1.0" encoding="utf-8"?>
<!-- Generator: Adobe Illustrator 20.1.0, SVG Export Plug-In . SVG Version: 6.00 Build 0)  -->
<svg version="1.1" xmlns="http://www.w3.org/2000/svg" xmlns:xlink="http://www.w3.org/1999/xlink" x="0px" y="0px"
	 viewBox="0 0 353.6 353.6" style="enable-background:new 0 0 353.6 353.6;" xml:space="preserve">
<style type="text/css">
	.st0{fill:#B665A5;}
	.st1{fill:#995891;}
	.st2{fill:#FFFFFF;}
</style>
<g id="Layer_3">
	<path class="st0" d="M353.7,175.7v1c0,3-0.1,6-0.2,8.9c-0.2,3.5-0.4,6.9-0.8,10.3c-0.3,3.2-0.8,6.4-1.3,9.6
		C339.8,275.7,287,332,218.5,348.5c-6.2,1.5-12.5,2.7-19,3.5c-4.2,0.5-8.4,0.9-12.7,1.2c-3.3,0.2-6.6,0.3-10,0.3
		c-3.6,0-7.2-0.1-10.8-0.3c-5.2-0.3-10.3-0.9-15.3-1.6C65.5,338.9,0.1,265.4,0.1,176.7C0.1,79,79.2-0.1,176.9-0.1
		c96.2,0,174.4,76.8,176.7,172.5C353.6,173.5,353.7,174.6,353.7,175.7z"/>
</g>
<g id="Layer_5">
	<g id="Layer_4">
		<path class="st1" d="M353.7,175.7v1c0,3-0.1,6-0.2,8.9c-0.2,3.5-0.4,6.9-0.8,10.3c-0.3,3.2-0.8,6.4-1.3,9.6
			C339.8,275.7,287,332,218.5,348.5c-6.2,1.5-12.5,2.7-19,3.5L97.4,253.9l-9.2-69.9l22.5-74.6l127.2-25.7l115.8,88.7
			C353.6,173.5,353.7,174.6,353.7,175.7z"/>
	</g>
	<g>
		<path id="Skype" class="st2" d="M286.9,194.3c0.9-5.7,1.4-11.4,1.4-17.3c0-61.4-49.7-111.1-111.1-111.1c-5.9,0-11.7,0.5-17.3,1.4
			c-10.2-6.3-22.3-10-35.3-10c-37.1,0-67.1,30.1-67.1,67.1c0,12.9,3.7,25,10,35.3c-0.9,5.7-1.4,11.4-1.4,17.3
			c0,61.4,49.7,111.1,111.1,111.1c5.9,0,11.7-0.5,17.3-1.3c10.2,6.3,22.3,10,35.3,10c37.1,0,67.1-30.1,67.1-67.1
			C296.9,216.6,293.3,204.6,286.9,194.3z M229.9,227.5c-4.7,6.8-11.6,12.1-20.6,15.9c-9,3.8-19.7,5.7-32.1,5.7
			c-14.8,0-27-2.6-36.7-7.8c-6.9-3.7-12.4-8.8-16.7-15c-4.3-6.3-6.5-12.4-6.5-18.4c0-3.5,1.3-6.6,4-9.1c2.6-2.5,6.1-3.8,10.1-3.8
			c3.3,0,6.1,1,8.4,3c2.3,2,4.2,4.8,5.8,8.6c1.9,4.4,3.9,8,6.1,10.9c2.2,2.9,5.2,5.3,9.1,7.2c3.9,1.9,9.1,2.8,15.6,2.8
			c8.9,0,16.1-1.9,21.5-5.7c5.5-3.8,8.2-8.5,8.2-14.1c0-4.5-1.4-8-4.4-10.8c-3-2.8-6.8-5-11.5-6.4c-4.8-1.5-11.1-3.1-19.2-4.8
			c-10.7-2.3-19.7-5.1-27-8.2c-7.3-3.1-13.1-7.5-17.4-12.9c-4.3-5.5-6.5-12.3-6.5-20.4c0-7.7,2.3-14.6,6.8-20.6
			c4.5-6,11.1-10.6,19.7-13.8c8.5-3.2,18.6-4.8,30.1-4.8c9.2,0,17.2,1.1,23.9,3.2c6.7,2.1,12.3,5,16.8,8.5c4.5,3.5,7.7,7.3,9.8,11.2
			c2.1,3.9,3.1,7.7,3.1,11.5c0,3.5-1.3,6.6-4,9.4c-2.6,2.8-6,4.2-9.9,4.2c-3.5,0-6.3-0.8-8.2-2.5c-1.9-1.7-3.8-4.3-6-8
			c-2.7-5.2-5.9-9.2-9.6-12.1c-3.6-2.8-9.7-4.3-18-4.3c-7.7,0-13.9,1.6-18.6,4.7c-4.7,3.1-6.9,6.8-7,11.1c0,2.7,0.8,4.9,2.3,6.9
			c1.6,1.9,3.8,3.6,6.6,5.1c2.8,1.4,5.7,2.6,8.5,3.4c2.9,0.8,7.7,2,14.4,3.6c8.4,1.8,16,3.8,22.9,6c6.8,2.2,12.7,4.9,17.5,8.1
			c4.9,3.2,8.7,7.2,11.4,12.1c2.7,4.9,4.1,10.9,4.1,17.9C237,213.1,234.6,220.8,229.9,227.5z"/>
	</g>
</g>
</svg>
